<?xml version="1.0" encoding="UTF-8"?>
<svg id="Layer_1" data-name="Layer 1" xmlns="http://www.w3.org/2000/svg" viewBox="0 0 345.24 158.52">
  <defs>
    <style>
      .cls-1 {
        fill: none;
      }

      .cls-2 {
        fill: #43474b;
      }

      .cls-3 {
        fill: #bed63a;
      }
    </style>
  </defs>
  <rect class="cls-1" x="0" width="345.33" height="158.29"/>
  <path id="MTM" class="cls-2" d="M215.84,95.04c-2.39-.47-4.03-2.7-4.03-5.14v-25.43s-15.56,22.16-15.56,22.16c-.7,1-1.84,1.59-3.06,1.59h0c-1.22,0-2.36-.59-3.06-1.59l-15.56-22.16v25.43c0,2.43-1.64,4.67-4.03,5.14-3.21.63-6.04-1.83-6.04-4.94v-40.46c0-2.34,1.4-4.56,3.63-5.26s4.61.15,5.89,1.98l19.17,27.29,19.04-27.11c.85-1.21,2.11-2.12,3.57-2.35,3.26-.52,6.09,2,6.09,5.17v40.73c0,3.1-2.83,5.56-6.04,4.94ZM141.5,90.15v-35.9h14.12c2.78,0,5.03-2.26,5.03-5.04s-2.26-5.03-5.03-5.03h-38.31c-2.78,0-5.04,2.26-5.04,5.03s2.26,5.04,5.04,5.04h14.12v35.9c0,2.78,2.26,5.03,5.04,5.03s5.03-2.26,5.03-5.03ZM108.34,90.1v-40.73c0-3.17-2.83-5.69-6.09-5.17-1.46.23-2.72,1.14-3.57,2.35l-19.03,27.1-19.17-27.29c-1.29-1.83-3.64-2.69-5.89-1.98-2.23.71-3.63,2.92-3.63,5.26v40.46c0,3.1,2.82,5.56,6.04,4.94,2.39-.46,4.03-2.7,4.03-5.14v-25.43s15.56,22.16,15.56,22.16c.7,1,1.84,1.59,3.06,1.59h0c1.22,0,2.36-.59,3.06-1.59l15.56-22.16v25.43c0,2.44,1.64,4.67,4.03,5.14,3.21.63,6.04-1.83,6.04-4.94Z"/>
  <path id="Tagline" class="cls-2" d="M50.86,114.13v-7.06h1.44l2.05,2.92,2.05-2.92h1.43v7.06h-1.43v-4.83l-1.62,2.27h-.81l-1.65-2.27v4.83h-1.45ZM61.99,114.13v-7.06h5.18v1.3h-3.73v1.36h3.01v1.28h-3.01v1.82h3.84v1.3h-5.29ZM71.05,114.13v-7.06h2.64c1.14,0,2.08.33,2.79.99.72.65,1.08,1.5,1.08,2.54s-.36,1.9-1.08,2.55c-.72.66-1.65.98-2.79.98h-2.64ZM72.5,112.83h1.07c1.57,0,2.5-.83,2.5-2.23s-.93-2.23-2.5-2.23h-1.07v4.46ZM81.52,114.13v-7.06h1.44v7.06h-1.44ZM86.56,114.13l3.03-7.1h1.39l3.03,7.1h-1.54l-.7-1.63h-2.99l-.7,1.63h-1.52ZM89.23,111.29h2.07l-1.03-2.45-1.04,2.45ZM101.75,107.07h5.92v1.3h-2.24v5.76h-1.45v-5.76h-2.23v-1.3ZM111.34,114.13v-7.06h5.18v1.3h-3.73v1.36h3.01v1.28h-3.01v1.82h3.84v1.3h-5.29ZM121.1,113.24c-.73-.7-1.09-1.57-1.09-2.64s.36-1.96,1.08-2.64c.73-.69,1.64-1.03,2.74-1.03.7,0,1.31.15,1.87.44v1.46c-.54-.36-1.16-.55-1.86-.55s-1.23.22-1.68.65c-.44.43-.67.98-.67,1.65s.23,1.23.69,1.66c.45.43,1.03.65,1.72.65.77,0,1.41-.2,1.94-.61v1.46c-.57.34-1.24.51-2.01.51-1.1,0-2.01-.34-2.73-1.03ZM129.68,114.13v-7.06h1.45v2.64h3.19v-2.64h1.44v7.06h-1.44v-3.1h-3.19v3.1h-1.45ZM139.92,114.13v-7.06h1.24l3.56,4.52v-4.52h1.41v7.06h-1.2l-3.59-4.54v4.54h-1.42ZM151.09,108c.7-.71,1.57-1.07,2.62-1.07s1.92.35,2.61,1.07c.7.71,1.05,1.57,1.05,2.6s-.35,1.89-1.05,2.6c-.7.71-1.56,1.07-2.61,1.07s-1.93-.35-2.62-1.07c-.7-.72-1.04-1.58-1.04-2.6s.34-1.9,1.04-2.6ZM153.71,112.91c.62,0,1.14-.22,1.55-.65.41-.43.62-.99.62-1.65s-.21-1.22-.62-1.65c-.41-.43-.93-.65-1.55-.65s-1.15.22-1.56.65c-.41.43-.61.99-.61,1.65s.2,1.22.61,1.65c.41.43.94.65,1.56.65ZM161.28,114.13v-7.06h1.45v5.76h3.58v1.3h-5.03ZM170.29,108c.7-.71,1.57-1.07,2.62-1.07s1.92.35,2.61,1.07c.7.71,1.05,1.57,1.05,2.6s-.35,1.89-1.05,2.6c-.7.71-1.56,1.07-2.61,1.07s-1.93-.35-2.62-1.07c-.7-.72-1.04-1.58-1.04-2.6s.34-1.9,1.04-2.6ZM172.91,112.91c.62,0,1.14-.22,1.55-.65.41-.43.63-.99.63-1.65s-.21-1.22-.63-1.65c-.41-.43-.93-.65-1.55-.65s-1.15.22-1.56.65c-.41.43-.61.99-.61,1.65s.2,1.22.61,1.65c.41.43.94.65,1.56.65ZM181.32,113.24c-.72-.7-1.08-1.57-1.08-2.64s.36-1.96,1.08-2.64c.71-.69,1.63-1.03,2.73-1.03.82,0,1.52.18,2.12.53v1.43c-.65-.4-1.32-.61-2.02-.61s-1.3.21-1.75.65c-.45.42-.68.99-.68,1.69s.22,1.26.65,1.67c.43.41.98.62,1.62.62s1.09-.15,1.42-.46v-2.43h1.45v3.12c-.29.31-.7.59-1.21.8-.51.21-1.07.32-1.66.32-1.07,0-1.97-.34-2.68-1.03ZM192.83,114.13v-3.17l-2.73-3.89h1.71l1.75,2.51,1.76-2.51h1.66l-2.72,3.86v3.2h-1.44ZM205.62,114.13v-7.06h1.44l2.05,2.92,2.05-2.92h1.43v7.06h-1.43v-4.83l-1.62,2.27h-.81l-1.65-2.27v4.83h-1.45ZM217.54,108c.7-.71,1.57-1.07,2.62-1.07s1.92.35,2.61,1.07c.7.71,1.05,1.57,1.05,2.6s-.35,1.89-1.05,2.6c-.7.71-1.56,1.07-2.61,1.07s-1.93-.35-2.62-1.07c-.7-.72-1.04-1.58-1.04-2.6s.34-1.9,1.04-2.6ZM220.17,112.91c.62,0,1.14-.22,1.55-.65.41-.43.63-.99.63-1.65s-.21-1.22-.63-1.65c-.41-.43-.93-.65-1.55-.65s-1.15.22-1.56.65c-.41.43-.61.99-.61,1.65s.2,1.22.61,1.65c.41.43.94.65,1.56.65ZM227.74,114.13v-7.06h1.24l3.56,4.52v-4.52h1.41v7.06h-1.2l-3.59-4.54v4.54h-1.42ZM238.16,114.13v-7.06h1.44v7.06h-1.44ZM243.34,107.07h5.92v1.3h-2.24v5.76h-1.45v-5.76h-2.23v-1.3ZM253.23,108c.7-.71,1.57-1.07,2.62-1.07s1.92.35,2.61,1.07c.7.71,1.05,1.57,1.05,2.6s-.35,1.89-1.05,2.6c-.7.71-1.56,1.07-2.61,1.07s-1.92-.35-2.62-1.07c-.7-.72-1.04-1.58-1.04-2.6s.34-1.9,1.04-2.6ZM255.85,112.91c.63,0,1.14-.22,1.55-.65.41-.43.63-.99.63-1.65s-.21-1.22-.63-1.65c-.41-.43-.93-.65-1.55-.65s-1.15.22-1.56.65c-.41.43-.61.99-.61,1.65s.2,1.22.61,1.65c.41.43.94.65,1.56.65ZM263.42,114.13v-7.06h3.27c.75,0,1.34.19,1.77.58.43.38.66.89.66,1.5,0,.94-.55,1.67-1.46,1.96l2.18,3.01h-1.68l-2.06-2.85h-1.22v2.85h-1.45ZM264.87,110.05h1.73c.66,0,1.05-.3,1.05-.86s-.39-.86-1.05-.86h-1.73v1.71Z"/>
  <g>
    <g>
      <path class="cls-2" d="M305.18,104.64l-13.45-13.45c-1.42-1.42-3.44-1.87-5.25-1.39l-4.04-4.04c3.76-4.65,6.02-10.55,6.02-16.98,0-5.01-1.38-9.91-4-14.17-.79-1.28-2.47-1.69-3.75-.89-1.28.79-1.68,2.47-.89,3.75,2.09,3.39,3.19,7.31,3.19,11.31,0,11.92-9.7,21.61-21.61,21.61s-21.61-9.7-21.61-21.61v-14.75c0-.74-.63-.67-.97-.15-2.9,4.4-4.49,9.57-4.49,14.89,0,14.93,12.14,27.07,27.07,27.07,6.54,0,12.54-2.33,17.23-6.2l4.01,4.01c-.48,1.82-.03,3.83,1.39,5.25l13.45,13.45c1.06,1.07,2.46,1.6,3.86,1.6s2.79-.53,3.86-1.6c2.13-2.13,2.13-5.59,0-7.72Z"/>
      <g>
        <circle class="cls-2" cx="249.3" cy="39.14" r="3.11"/>
        <circle class="cls-2" cx="261.39" cy="47.08" r="3.11"/>
        <circle class="cls-2" cx="273.45" cy="56.73" r="3.11"/>
        <path class="cls-2" d="M248.83,43.59h.94c2.85,0,5.16,2.31,5.16,5.16v14.62c0,.41.33.74.74.74h.13c.41,0,.74-.33.74-.74v-7.42c0-2.44,1.98-4.42,4.42-4.42h.8c2.44,0,4.42,1.98,4.42,4.42v7.43s0,3.28,0,3.28c0,.41.33.74.74.74h.13c.41,0,.74-.33.74-.74v-.24c.2-2.93,2.65-5.25,5.63-5.25h0c3.11,0,5.63,2.52,5.63,5.63v1.97c0,4.87-1.97,9.28-5.15,12.48l-1.64-.65-.06-2.38-5.02,2.11,1.48-8.59-3.23,1.47-4.07-4.64-4.07,4.64-3.23-1.47,1.48,8.59-5.02-2.11-.06,2.38-1.64.65c-3.18-3.2-5.15-7.61-5.15-12.48v-5.39s0-14.63,0-14.63c0-2.85,2.31-5.16,5.16-5.16Z"/>
      </g>
    </g>
    <path class="cls-3" d="M271.45,83.29c-2.86,1.98-6.32,3.16-10.06,3.16-3.72,0-7.17-1.16-10.02-3.13.6.18,5.01,1.5,7.94,1.5,2.03-3.74,2.05-9.15,2.05-9.15,0,0,.03,5.41,2.05,9.15,3.11,0,7.92-1.49,8.04-1.53Z"/>
  </g>
</svg>