<?xml version="1.0" encoding="UTF-8"?>
<svg id="Layer_1" data-name="Layer 1" xmlns="http://www.w3.org/2000/svg" version="1.1" viewBox="0 0 132.9 43.6">
  <defs>
    <style>
      .cls-1 {
        fill: none;
        stroke: #43474b;
        stroke-linecap: round;
        stroke-linejoin: round;
        stroke-width: 6.2px;
      }

      .cls-2 {
        fill: #43474b;
      }

      .cls-2, .cls-3 {
        stroke-width: 0px;
      }

      .cls-3 {
        fill: #bfd73b;
      }
    </style>
  </defs>
  <g id="Layer_1-2" data-name="Layer 1">
    <g id="MTM_Logo_Tag" data-name="MTM Logo Tag">
      <path id="Chart" class="cls-3" d="M132.9,27.4v1.9c0,1.4-1.1,2.5-2.5,2.5s-2.5-1.1-2.5-2.5v-1.9c0-1.4,1.1-2.5,2.5-2.5s2.5,1.2,2.5,2.5ZM122.6,17.3c-1.4,0-2.5,1.1-2.5,2.5v9.5c0,1.4,1.1,2.5,2.5,2.5s2.5-1.1,2.5-2.5v-9.5c0-1.4-1.1-2.5-2.5-2.5ZM114.9,9.3c-1.4,0-2.5,1.1-2.5,2.5v17.5c0,1.4,1.1,2.5,2.5,2.5s2.5-1.1,2.5-2.5V11.8c0-1.4-1.1-2.5-2.5-2.5Z"/>
      <path id="MTM" class="cls-2" d="M102.4,31.7c-1.5-.3-2.5-1.7-2.5-3.2v-15.8l-9.7,13.8c-.4.6-1.1,1-1.9,1h0c-.8,0-1.5-.4-1.9-1l-9.7-13.8v15.8c0,1.5-1,2.9-2.5,3.2-2,.4-3.7-1.1-3.7-3.1V3.5c0-1.5.9-2.8,2.3-3.3,1.4-.4,2.9.1,3.7,1.2l11.9,16.9L100.2,1.5c.5-.7,1.3-1.3,2.2-1.5,2-.3,3.8,1.2,3.8,3.2v25.3c0,2.1-1.8,3.6-3.8,3.2ZM56.3,28.7V6.4h8.7c1.7,0,3.1-1.4,3.1-3.1s-1.4-3.1-3.1-3.1h-23.8c-1.7,0-3.1,1.4-3.1,3.1s1.4,3.1,3.1,3.1h8.8v22.3c0,1.7,1.4,3.1,3.1,3.1,1.8,0,3.2-1.4,3.2-3.1ZM35.7,28.7V3.4c0-2-1.8-3.5-3.8-3.2-.9.1-1.7.7-2.2,1.5l-11.8,16.7L6,1.5C5.2.4,3.7-.2,2.3.3.9.7,0,2.1,0,3.5v25.1c0,1.9,1.8,3.5,3.7,3.1,1.5-.3,2.5-1.7,2.5-3.2v-15.8l9.8,13.8c.4.6,1.1,1,1.9,1h0c.8,0,1.5-.4,1.9-1l9.7-13.8v15.8c0,1.5,1,2.9,2.5,3.2,1.9.4,3.7-1.1,3.7-3Z"/>
      <path id="Tagline" class="cls-2" d="M0,43.5v-4.3h.9l1.2,1.8,1.2-1.8h.9v4.3h-.9v-2.9l-1,1.4h-.5l-1-1.4v2.9h-.8ZM6.7,43.5v-4.3h3.1v.8h-2.3v.8h1.8v.8h-1.8v1.1h2.5v.8s-3.3,0-3.3,0ZM12.2,43.5v-4.3h1.6c.7,0,1.3.2,1.7.6s.7.9.7,1.5-.2,1.2-.7,1.5c-.4.4-1,.6-1.7.6h-1.6ZM13.1,42.7h.6c1,0,1.5-.5,1.5-1.4s-.6-1.4-1.5-1.4h-.6v2.8ZM18.6,43.5v-4.3h.9v4.3h-.9ZM21.6,43.5l1.8-4.3h.8l1.8,4.3h-.9l-.4-1h-1.7l-.4,1h-1ZM23.3,41.8h1.3l-.6-1.5-.7,1.5ZM30.9,39.2h3.6v.8h-1.4v3.5h-.9v-3.5h-1.4v-.8h.1ZM36.7,43.5v-4.3h3.1v.8h-2.3v.8h1.8v.8h-1.8v1.1h2.3v.8s-3.1,0-3.1,0ZM42.6,42.9c-.4-.4-.7-1-.7-1.6s.2-1.2.7-1.6c.4-.4,1-.6,1.7-.6s.8,0,1.1.3v.9c-.3-.2-.7-.3-1.1-.3s-.7,0-1,.4-.4.6-.4,1,0,.7.4,1,.6.4,1,.4.9,0,1.2-.4v.9c-.3.2-.8.3-1.2.3-.7,0-1.3-.2-1.7-.7ZM47.8,43.5v-4.3h.9v1.6h1.9v-1.6h.9v4.3h-.9v-1.9h-1.9v1.9h-.9ZM54,43.5v-4.3h.8l2.2,2.7v-2.7h.9v4.3h-.7l-2.2-2.8v2.8h-1ZM60.8,39.8c.4-.4,1-.6,1.6-.6s1.2.2,1.6.6.6,1,.6,1.6-.2,1.1-.6,1.6c-.4.4-.9.6-1.6.6s-1.2-.2-1.6-.6-.6-1-.6-1.6c0-.7.2-1.2.6-1.6ZM62.4,42.7c.4,0,.7,0,.9-.4.3-.3.4-.6.4-1s0-.7-.4-1-.6-.4-.9-.4-.7,0-.9.4c-.3.3-.4.6-.4,1s0,.7.4,1c.2.3.5.4.9.4ZM67,43.5v-4.3h.9v3.5h2.2v.8h-3.1ZM72.5,39.8c.4-.4,1-.6,1.6-.6s1.2.2,1.6.6.6,1,.6,1.6-.2,1.1-.6,1.6c-.4.4-.9.6-1.6.6s-1.2-.2-1.6-.6-.6-1-.6-1.6c0-.7,0-1.2.6-1.6ZM74,42.7c.4,0,.7,0,.9-.4.3-.3.4-.6.4-1s0-.7-.4-1c-.2-.3-.6-.4-.9-.4s-.7,0-.9.4c-.3.3-.4.6-.4,1s0,.7.4,1,.6.4.9.4ZM79.2,42.9c-.4-.4-.7-1-.7-1.6s.2-1.2.7-1.6c.4-.4,1-.6,1.7-.6s.9,0,1.3.3v.9c-.4-.2-.8-.4-1.2-.4s-.8,0-1.1.4c-.3.3-.4.6-.4,1s0,.8.4,1c.3.3.6.4,1,.4s.7,0,.9-.3v-1.5h.9v1.9c-.2.2-.4.4-.7.5-.3,0-.6.2-1,.2-.9,0-1.4-.1-1.8-.6ZM86.1,43.5v-1.9l-1.7-2.4h1l1.1,1.5,1.1-1.5h1l-1.7,2.3v1.9h-.8ZM93.9,43.5v-4.3h.9l1.2,1.8,1.2-1.8h.9v4.3h-.9v-2.9l-1,1.4h-.5l-1-1.4v2.9h-.8ZM101.1,39.8c.4-.4,1-.6,1.6-.6s1.2.2,1.6.6c.4.4.6,1,.6,1.6s-.2,1.1-.6,1.6c-.4.4-.9.6-1.6.6s-1.2-.2-1.6-.6c-.4-.4-.6-1-.6-1.6s.2-1.2.6-1.6ZM102.7,42.7c.4,0,.7,0,.9-.4.3-.3.4-.6.4-1s-.1-.7-.4-1c-.2-.3-.6-.4-.9-.4s-.7,0-.9.4c-.3.3-.4.6-.4,1s.1.7.4,1c.2.3.5.4.9.4ZM107.3,43.5v-4.3h.8l2.2,2.7v-2.7h.9v4.3h-.7l-2.2-2.8v2.8h-1ZM113.6,43.5v-4.3h.9v4.3h-.9ZM116.8,39.2h3.6v.8h-1.4v3.5h-.9v-3.5h-1.4v-.8h0ZM122.8,39.8c.4-.4,1-.6,1.6-.6s1.2.2,1.6.6c.4.4.6,1,.6,1.6s-.2,1.1-.6,1.6c-.4.4-.9.6-1.6.6s-1.2-.2-1.6-.6c-.4-.4-.6-1-.6-1.6s.2-1.2.6-1.6ZM124.4,42.7c.4,0,.7,0,.9-.4.3-.3.4-.6.4-1s-.1-.7-.4-1c-.2-.3-.6-.4-.9-.4s-.7,0-.9.4c-.3.3-.4.6-.4,1s.1.7.4,1c.2.3.5.4.9.4ZM129,43.5v-4.3h2c.5,0,.8,0,1.1.4.3.2.4.5.4.9,0,.6-.3,1-.9,1.2l1.3,1.8h-1l-1.2-1.7h-.7v1.7h-1ZM129.9,41h1.1c.4,0,.6-.2.6-.5s-.2-.5-.6-.5h-1.1v1Z"/>
    </g>
    <polyline class="cls-1" points="103.1 28.4 103.1 3.7 88.4 23.3 73.6 3.7 73.6 28.4"/>
  </g>
</svg>