<?xml version="1.0" encoding="UTF-8"?>
<svg id="Layer_1" data-name="Layer 1" xmlns="http://www.w3.org/2000/svg" viewBox="0 0 349.96 156.64">
  <defs>
    <style>
      .cls-1 {
        fill: none;
      }

      .cls-2 {
        fill: #43474b;
      }

      .cls-3 {
        fill: #bed63a;
      }
    </style>
  </defs>
  <rect class="cls-1" x="0" width="350.05" height="156.68"/>
  <path id="MTM" class="cls-2" d="M208.05,94.99c-2.39-.47-4.03-2.7-4.03-5.14v-25.43s-15.56,22.16-15.56,22.16c-.7,1-1.84,1.59-3.06,1.59h0c-1.22,0-2.36-.59-3.06-1.59l-15.56-22.16v25.43c0,2.43-1.64,4.67-4.03,5.14-3.21.63-6.04-1.83-6.04-4.94v-40.46c0-2.34,1.4-4.56,3.63-5.26,2.25-.72,4.61.15,5.89,1.98l19.17,27.29,19.04-27.11c.85-1.21,2.11-2.12,3.57-2.35,3.26-.52,6.09,2,6.09,5.17v40.73c0,3.1-2.83,5.56-6.04,4.94ZM132.68,90.11v-35.9h14.12c2.78,0,5.03-2.26,5.03-5.04s-2.26-5.03-5.03-5.03h-38.31c-2.78,0-5.04,2.26-5.04,5.03s2.26,5.04,5.04,5.04h14.12v35.9c0,2.78,2.26,5.03,5.04,5.03s5.03-2.26,5.03-5.03ZM104.49,69.59c0-14.83-12.06-26.89-26.89-26.89s-26.89,12.06-26.89,26.89,12.06,26.89,26.89,26.89,26.89-12.06,26.89-26.89ZM94.49,69.59c0,9.32-7.58,16.9-16.9,16.9s-16.9-7.58-16.9-16.9,7.58-16.9,16.9-16.9,16.9,7.58,16.9,16.9Z"/>
  <path id="Tagline" class="cls-2" d="M51.59,107.53c.6-.61,1.35-.92,2.25-.92s1.64.3,2.24.92c.6.61.9,1.35.9,2.23s-.3,1.62-.9,2.23-1.34.92-2.24.92-1.65-.3-2.25-.92-.89-1.36-.89-2.23.29-1.63.89-2.23ZM53.84,111.74c.54,0,.98-.19,1.33-.56.35-.37.54-.85.54-1.42s-.18-1.05-.54-1.42c-.35-.37-.8-.56-1.33-.56s-.99.19-1.34.56c-.35.37-.53.85-.53,1.42s.17,1.05.53,1.42c.35.37.8.56,1.34.56ZM58.79,112.79v-6.05h2.85c1.11,0,1.83.55,1.83,1.51,0,.61-.35,1.03-.76,1.2.34.07.62.25.86.54.24.28.36.64.36,1.08,0,.51-.19.93-.57,1.25s-.89.48-1.53.48h-3.04ZM60.04,109.1h1.4c.52,0,.83-.24.83-.66s-.31-.67-.83-.67h-1.4v1.33ZM60.04,111.71h1.57c.61,0,.99-.28.99-.79s-.37-.8-.99-.8h-1.57v1.58ZM65.38,112.26v-1.3c.25.22.58.41,1,.57.42.16.84.23,1.25.23.66,0,1.17-.24,1.17-.7,0-.22-.1-.41-.31-.5-.11-.07-.17-.09-.35-.16l-.21-.07-.48-.15-.45-.15c-.09-.03-.22-.08-.41-.15-.18-.07-.31-.13-.39-.18-.16-.11-.46-.32-.57-.53-.1-.21-.21-.5-.21-.85,0-.54.21-.96.61-1.26.41-.31.97-.47,1.67-.47s1.37.16,1.98.5v1.21c-.61-.38-1.27-.57-1.96-.57s-1.03.2-1.03.6c0,.2.12.32.32.42.11.06.33.14.49.18.16.04.48.13.66.19.58.18.91.35,1.32.63.41.28.61.71.61,1.26s-.22,1.04-.68,1.37c-.46.34-1.03.5-1.72.5-.91,0-1.68-.22-2.3-.65ZM71.8,112.79v-6.05h4.45v1.12h-3.2v1.17h2.58v1.1h-2.58v1.56h3.3v1.12h-4.54ZM78.02,112.79v-6.05h2.8c.64,0,1.15.16,1.52.5.37.33.56.76.56,1.29,0,.8-.47,1.44-1.25,1.68l1.87,2.59h-1.44l-1.76-2.45h-1.05v2.45h-1.25ZM79.26,109.29h1.49c.56,0,.9-.26.9-.74s-.34-.74-.9-.74h-1.49v1.47ZM86.81,112.82l-2.54-6.09h1.38l1.76,4.36,1.77-4.36h1.35l-2.54,6.09h-1.18ZM90.56,112.79l2.59-6.09h1.19l2.59,6.09h-1.32l-.6-1.4h-2.56l-.6,1.4h-1.31ZM92.85,110.36h1.77l-.88-2.1-.89,2.1ZM97.16,106.73h5.08v1.12h-1.92v4.94h-1.25v-4.94h-1.91v-1.12ZM103.85,112.79v-6.05h4.45v1.12h-3.2v1.17h2.58v1.1h-2.58v1.56h3.3v1.12h-4.54ZM110.72,112.21c-.48-.47-.73-1.12-.73-1.96v-3.51h1.24v3.55c0,.96.55,1.45,1.35,1.45s1.36-.49,1.36-1.45v-3.55h1.25v3.51c0,.84-.24,1.5-.74,1.96-.48.47-1.11.7-1.87.7s-1.37-.23-1.86-.7ZM117.11,112.79v-6.05h2.8c.64,0,1.15.16,1.52.5.37.33.56.76.56,1.29,0,.8-.47,1.44-1.25,1.68l1.87,2.59h-1.44l-1.76-2.45h-1.05v2.45h-1.25ZM118.36,109.29h1.49c.56,0,.9-.26.9-.74s-.34-.74-.9-.74h-1.49v1.47ZM127.01,112.79v-6.05h2.26c.98,0,1.78.29,2.4.85.61.56.93,1.29.93,2.18s-.31,1.63-.93,2.19c-.61.56-1.42.84-2.4.84h-2.26ZM128.26,111.67h.92c1.35,0,2.15-.71,2.15-1.91s-.8-1.91-2.15-1.91h-.92v3.82ZM134.41,112.79v-6.05h4.44v1.12h-3.2v1.17h2.58v1.1h-2.58v1.56h3.29v1.12h-4.54ZM140.34,112.26v-1.3c.25.22.58.41,1,.57.42.16.84.23,1.24.23.66,0,1.17-.24,1.17-.7,0-.22-.1-.41-.31-.5-.11-.07-.17-.09-.35-.16l-.21-.07-.48-.15-.45-.15c-.09-.03-.23-.08-.41-.15-.18-.07-.31-.13-.39-.18-.17-.11-.46-.32-.57-.53-.1-.21-.21-.5-.21-.85,0-.54.21-.96.61-1.26.41-.31.97-.47,1.67-.47s1.37.16,1.98.5v1.21c-.61-.38-1.27-.57-1.96-.57s-1.03.2-1.03.6c0,.2.12.32.32.42.11.06.33.14.49.18.17.04.48.13.66.19.58.18.91.35,1.31.63.41.28.61.71.61,1.26s-.22,1.04-.68,1.37c-.46.34-1.03.5-1.72.5-.91,0-1.68-.22-2.3-.65ZM148.82,106.73h5.08v1.12h-1.92v4.94h-1.24v-4.94h-1.91v-1.12ZM155.51,112.79v-6.05h4.44v1.12h-3.2v1.17h2.58v1.1h-2.58v1.56h3.29v1.12h-4.54ZM162.33,112.03c-.62-.6-.93-1.35-.93-2.27s.31-1.68.93-2.27c.62-.59,1.41-.88,2.35-.88.6,0,1.12.13,1.6.38v1.25c-.47-.31-1-.47-1.59-.47s-1.06.19-1.44.56c-.38.37-.57.84-.57,1.42s.2,1.06.59,1.43c.39.37.88.55,1.48.55.66,0,1.21-.17,1.66-.53v1.25c-.49.29-1.06.44-1.72.44-.94,0-1.72-.29-2.35-.88ZM168.15,112.79v-6.05h1.24v2.27h2.73v-2.27h1.24v6.05h-1.24v-2.66h-2.73v2.66h-1.24ZM175.39,112.79v-6.05h1.06l3.05,3.87v-3.87h1.21v6.05h-1.03l-3.08-3.89v3.89h-1.22ZM183.43,107.53c.6-.61,1.35-.92,2.25-.92s1.64.3,2.24.92c.6.61.9,1.35.9,2.23s-.3,1.62-.9,2.23c-.6.61-1.34.92-2.24.92s-1.65-.3-2.25-.92c-.6-.61-.89-1.36-.89-2.23s.29-1.63.89-2.23ZM185.67,111.74c.54,0,.98-.19,1.33-.56.36-.37.54-.85.54-1.42s-.18-1.05-.54-1.42c-.35-.37-.8-.56-1.33-.56s-.99.19-1.34.56c-.35.37-.53.85-.53,1.42s.17,1.05.53,1.42c.36.37.81.56,1.34.56ZM190.62,112.79v-6.05h1.24v4.94h3.07v1.12h-4.32ZM196.8,107.53c.6-.61,1.35-.92,2.25-.92s1.64.3,2.24.92c.6.61.9,1.35.9,2.23s-.3,1.62-.9,2.23c-.6.61-1.34.92-2.24.92s-1.65-.3-2.25-.92c-.6-.61-.89-1.36-.89-2.23s.29-1.63.89-2.23ZM199.05,111.74c.54,0,.98-.19,1.33-.56.36-.37.54-.85.54-1.42s-.18-1.05-.54-1.42c-.35-.37-.8-.56-1.33-.56s-.99.19-1.34.56c-.35.37-.53.85-.53,1.42s.17,1.05.53,1.42c.36.37.81.56,1.34.56ZM204.72,112.03c-.61-.6-.93-1.35-.93-2.27s.31-1.68.93-2.27c.61-.59,1.4-.88,2.34-.88.7,0,1.31.16,1.82.46v1.23c-.56-.35-1.13-.52-1.73-.52s-1.12.18-1.51.55c-.39.36-.58.85-.58,1.45s.19,1.08.56,1.44c.37.35.84.54,1.39.54s.93-.13,1.22-.4v-2.08h1.25v2.67c-.25.27-.6.5-1.04.68-.44.18-.92.28-1.43.28-.92,0-1.69-.29-2.3-.88ZM211.36,112.79v-6.05h1.24v6.05h-1.24ZM214.66,112.79v-6.05h4.44v1.12h-3.2v1.17h2.58v1.1h-2.58v1.56h3.29v1.12h-4.54ZM220.59,112.26v-1.3c.25.22.58.41,1,.57.42.16.84.23,1.24.23.66,0,1.17-.24,1.17-.7,0-.22-.1-.41-.31-.5-.11-.07-.17-.09-.35-.16l-.21-.07-.48-.15-.45-.15c-.09-.03-.23-.08-.41-.15-.18-.07-.31-.13-.39-.18-.17-.11-.46-.32-.57-.53-.1-.21-.21-.5-.21-.85,0-.54.21-.96.61-1.26.41-.31.97-.47,1.67-.47s1.37.16,1.98.5v1.21c-.61-.38-1.27-.57-1.96-.57s-1.03.2-1.03.6c0,.2.12.32.32.42.11.06.33.14.49.18.17.04.48.13.66.19.58.18.91.35,1.31.63.41.28.61.71.61,1.26s-.22,1.04-.68,1.37c-.46.34-1.03.5-1.72.5-.91,0-1.68-.22-2.3-.65ZM229.92,112.79v-6.05h1.24l1.76,2.51,1.76-2.51h1.23v6.05h-1.23v-4.14l-1.39,1.95h-.69l-1.42-1.95v4.14h-1.24ZM237.92,112.79v-6.05h4.44v1.12h-3.2v1.17h2.58v1.1h-2.58v1.56h3.29v1.12h-4.54ZM239.36,106.21l.82-1.26h1.47l-1.24,1.26h-1.05ZM244.14,112.79v-6.05h2.26c.98,0,1.78.29,2.4.85.61.56.93,1.29.93,2.18s-.31,1.63-.93,2.19c-.61.56-1.42.84-2.4.84h-2.26ZM245.38,111.67h.92c1.35,0,2.15-.71,2.15-1.91s-.8-1.91-2.15-1.91h-.92v3.82ZM251.58,112.79v-6.05h1.24v6.05h-1.24ZM254.35,112.79l2.6-6.09h1.19l2.59,6.09h-1.32l-.6-1.4h-2.56l-.6,1.4h-1.31ZM256.64,110.36h1.77l-.88-2.1-.89,2.1ZM261.93,112.26v-1.3c.25.22.58.41,1,.57.42.16.84.23,1.24.23.66,0,1.17-.24,1.17-.7,0-.22-.1-.41-.31-.5-.11-.07-.17-.09-.35-.16l-.21-.07-.48-.15-.45-.15c-.09-.03-.23-.08-.41-.15-.18-.07-.31-.13-.39-.18-.17-.11-.46-.32-.57-.53-.1-.21-.21-.5-.21-.85,0-.54.21-.96.61-1.26.41-.31.97-.47,1.67-.47s1.37.16,1.98.5v1.21c-.61-.38-1.27-.57-1.96-.57s-1.03.2-1.03.6c0,.2.12.32.32.42.11.06.33.14.49.18.17.04.48.13.66.19.58.18.91.35,1.31.63.41.28.61.71.61,1.26s-.22,1.04-.68,1.37-1.03.5-1.72.5c-.91,0-1.68-.22-2.3-.65Z"/>
  <g>
    <g>
      <path class="cls-2" d="M297.45,104.6l-13.45-13.45c-1.42-1.42-3.44-1.87-5.25-1.39l-4.04-4.04c3.76-4.65,6.02-10.55,6.02-16.98,0-5.01-1.38-9.91-4-14.17-.79-1.28-2.47-1.69-3.75-.89-1.28.79-1.68,2.47-.89,3.75,2.09,3.39,3.19,7.31,3.19,11.31,0,11.92-9.7,21.61-21.61,21.61s-21.61-9.7-21.61-21.61v-14.75c0-.74-.63-.67-.97-.15-2.9,4.4-4.49,9.57-4.49,14.89,0,14.93,12.14,27.07,27.07,27.07,6.54,0,12.54-2.33,17.23-6.2l4.01,4.01c-.48,1.82-.03,3.83,1.39,5.25l13.45,13.45c1.06,1.07,2.46,1.6,3.86,1.6s2.79-.53,3.86-1.6c2.13-2.13,2.13-5.59,0-7.72Z"/>
      <g>
        <circle class="cls-2" cx="241.56" cy="39.1" r="3.11"/>
        <path class="cls-2" d="M256.77,47.04c0,1.72-1.39,3.11-3.11,3.11-1.72,0-3.11-1.39-3.11-3.11s1.39-3.11,3.11-3.11,3.11,1.39,3.11,3.11Z"/>
        <circle class="cls-2" cx="265.71" cy="56.68" r="3.11"/>
        <path class="cls-2" d="M241.09,43.54h.94c2.85,0,5.16,2.31,5.16,5.16v14.62c0,.41.33.74.74.74h.13c.41,0,.74-.33.74-.74v-7.42c0-2.44,1.98-4.42,4.42-4.42h.8c2.44,0,4.42,1.98,4.42,4.42v7.43s0,3.28,0,3.28c0,.41.33.74.74.74h.13c.41,0,.74-.33.74-.74v-.24c.2-2.93,2.65-5.25,5.63-5.25h0c3.11,0,5.63,2.52,5.63,5.63v1.97c0,4.87-1.97,9.28-5.15,12.48l-1.64-.65-.06-2.38-5.02,2.11,1.48-8.59-3.23,1.47-4.07-4.64-4.07,4.64-3.23-1.47,1.48,8.59-5.02-2.11-.06,2.38-1.64.65c-3.18-3.2-5.15-7.61-5.15-12.48v-5.39s0-14.63,0-14.63c0-2.85,2.31-5.16,5.16-5.16Z"/>
      </g>
    </g>
    <path class="cls-3" d="M263.71,83.25c-2.86,1.98-6.32,3.16-10.06,3.16s-7.17-1.16-10.02-3.13c.6.18,5.01,1.5,7.94,1.5,2.03-3.74,2.05-9.15,2.05-9.15,0,0,.03,5.41,2.05,9.15,3.11,0,7.92-1.49,8.04-1.53Z"/>
  </g>
</svg>