<?xml version="1.0" encoding="utf-8"?>
<!-- Generator: Adobe Illustrator 24.2.1, SVG Export Plug-In . SVG Version: 6.00 Build 0)  -->
<svg version="1.1" id="Layer_1" xmlns="http://www.w3.org/2000/svg" xmlns:xlink="http://www.w3.org/1999/xlink" x="0px" y="0px"
	 viewBox="0 0 374.7 192.7" style="enable-background:new 0 0 374.7 192.7;" xml:space="preserve">
<style type="text/css">
	.st0{fill:#414142;}
	.st1{fill:none;}
	.st2{fill:#BFD73B;}
</style>
<g>
	<path class="st0" d="M236.6,44.8l-15.3,24.7L206,44.8h-62v11.8h17.8v46.5h12.8V56.7h17.6v46.5h12.6V65.3L220.9,90h0.3l16.4-24.9
		v38.1h12.8V44.8H236.6z M126.7,120.1l-5.8-2L110,106.6c0.8-0.9,1.7-1.9,2.4-2.9c1.8,0.3,3.7,0.5,5.6,0.5c18,0,31.1-13.6,31.1-30.2
		v-0.2c0-16.6-12.9-30-30.9-30c-1.9,0-3.8,0.2-5.6,0.5c-8.9-11.5-22.8-19-38.5-19c-26.8,0-48.6,21.7-48.6,48.6
		c0,26.8,21.7,48.6,48.6,48.6c10.1,0,19.4-3.1,27.2-8.4l11.8,12l1.9,5.8l33,32.8c3.7,3.7,9.3,4.1,12.6,0.8c3.2-3.2,2.8-8.9-0.9-12.6
		L126.7,120.1z M119.1,55.7c9.8,0.6,16.6,8.6,16.6,18.3v0.2c0,9.7-6.8,17.7-16.7,18.1c2.3-5.7,3.6-11.9,3.6-18.4
		C122.7,67.5,121.4,61.3,119.1,55.7z M74.1,118.2c-12.3,0-23.3-5-31.4-13c-8-8-13-19.1-13-31.4s5-23.3,13-31.4c8-8,19.1-13,31.4-13
		s23.3,5,31.4,13c8,8,13,19.1,13,31.4c0,12.2-5,23.3-13,31.4C97.4,113.3,86.4,118.2,74.1,118.2z"/>
	<g>
		<path class="st0" d="M180.3,127c-3.8,0-6.4-2.9-6.4-6.3c0-3.5,2.7-6.4,6.4-6.4c3.8,0,6.4,2.9,6.4,6.3
			C186.8,124.1,184.1,127,180.3,127z M180.3,116.3c-2.4,0-4.1,2-4.1,4.4s1.7,4.4,4.2,4.4c2.4,0,4.1-2,4.1-4.4
			S182.8,116.3,180.3,116.3z"/>
		<path class="st0" d="M194.1,127c-1.5,0-2.5-0.8-3.1-1.6v1.4h-2.1V114h2.1v5.1c0.7-1,1.7-1.7,3.1-1.7c2.2,0,4.3,1.7,4.3,4.8
			C198.4,125.2,196.3,127,194.1,127z M193.6,119.2c-1.4,0-2.7,1.2-2.7,3s1.3,3,2.7,3c1.5,0,2.7-1.1,2.7-3
			C196.2,120.3,195,119.2,193.6,119.2z"/>
		<path class="st0" d="M203.4,127c-1.3,0-2.8-0.5-3.9-1.4l0.9-1.4c1,0.8,2.1,1.1,3,1.1s1.4-0.4,1.4-1l0,0c0-0.7-1-1-2.1-1.3
			c-1.4-0.4-2.9-0.9-2.9-2.7l0,0c0-1.8,1.5-2.8,3.3-2.8c1.2,0,2.4,0.4,3.4,1.1l-0.8,1.5c-0.9-0.5-1.8-0.9-2.6-0.9s-1.3,0.4-1.3,0.9
			l0,0c0,0.7,1,0.9,2.1,1.3c1.4,0.4,2.9,1,2.9,2.7l0,0C206.8,126,205.3,127,203.4,127z"/>
		<path class="st0" d="M212.9,125.3c1,0,1.8-0.4,2.5-1.1l1.2,1.1c-0.9,1.1-2.1,1.7-3.8,1.7c-2.7,0-4.8-1.9-4.8-4.8
			c0-2.7,1.9-4.8,4.5-4.8c3,0,4.4,2.3,4.4,5c0,0.2,0,0.4,0,0.6h-6.8C210.5,124.4,211.5,125.3,212.9,125.3z M215,121.5
			c-0.1-1.4-0.9-2.4-2.4-2.4c-1.3,0-2.2,1-2.4,2.4H215z"/>
		<path class="st0" d="M221,126.8h-2.1v-9.3h2.1v2.1c0.6-1.4,1.7-2.3,3.3-2.3v2.2h-0.1c-1.9,0-3.2,1.2-3.2,3.7V126.8z"/>
		<path class="st0" d="M232.2,117.5h2.2l-3.8,9.3h-1.9l-3.8-9.3h2.3l2.5,6.8L232.2,117.5z"/>
		<path class="st0" d="M241.1,126.8v-1.1c-0.6,0.8-1.6,1.3-3,1.3c-1.8,0-3.3-1-3.3-2.9l0,0c0-2,1.6-3,3.8-3c1.1,0,1.8,0.2,2.6,0.4
			v-0.2c0-1.3-0.8-2-2.3-2c-1,0-1.8,0.2-2.7,0.6l-0.6-1.7c1-0.5,2-0.8,3.5-0.8c2.7,0,4.1,1.4,4.1,3.9v5.5
			C243.2,126.8,241.1,126.8,241.1,126.8z M241.2,122.9c-0.5-0.2-1.3-0.4-2.1-0.4c-1.3,0-2.1,0.5-2.1,1.5l0,0c0,0.9,0.8,1.4,1.8,1.4
			c1.4,0,2.5-0.8,2.5-1.9L241.2,122.9L241.2,122.9z"/>
		<path class="st0" d="M247.9,123.9c0,0.8,0.4,1.2,1.1,1.2c0.5,0,0.9-0.1,1.3-0.3v1.7c-0.5,0.3-1.1,0.5-1.9,0.5
			c-1.6,0-2.7-0.7-2.7-2.7v-4.9h-1.2v-1.8h1.2V115h2.1v2.5h2.5v1.8h-2.5L247.9,123.9L247.9,123.9z"/>
		<path class="st0" d="M256.2,125.3c1,0,1.8-0.4,2.5-1.1l1.2,1.1c-0.9,1.1-2.1,1.7-3.8,1.7c-2.7,0-4.8-1.9-4.8-4.8
			c0-2.7,1.9-4.8,4.5-4.8c3,0,4.4,2.3,4.4,5c0,0.2,0,0.4,0,0.6h-6.8C253.8,124.4,254.8,125.3,256.2,125.3z M258.3,121.5
			c-0.1-1.4-0.9-2.4-2.4-2.4c-1.3,0-2.2,1-2.4,2.4H258.3z"/>
		<path class="st0" d="M268.2,117.5h2.1v9.3h-2.1v-1.4c-0.6,0.9-1.5,1.6-2.9,1.6c-2.1,0-3.3-1.4-3.3-3.6v-5.9h2.1v5.3
			c0,1.4,0.7,2.3,2,2.3c1.2,0,2.1-0.9,2.1-2.3L268.2,117.5L268.2,117.5z"/>
		<path class="st0" d="M274.8,126.8h-2.1v-9.3h2.1v2.1c0.6-1.4,1.7-2.3,3.3-2.3v2.2H278c-1.9,0-3.2,1.2-3.2,3.7V126.8z"/>
		<path class="st0" d="M291.5,126.8v-1.5c-0.7,1-1.7,1.7-3.2,1.7c-2.2,0-4.3-1.7-4.3-4.8c0-3.1,2.1-4.8,4.3-4.8
			c1.5,0,2.5,0.8,3.2,1.6v-5h2.1v12.8C293.6,126.8,291.5,126.8,291.5,126.8z M288.8,119.2c-1.5,0-2.7,1.1-2.7,3c0,1.8,1.2,3,2.7,3
			c1.4,0,2.7-1.2,2.7-3C291.5,120.3,290.3,119.2,288.8,119.2z"/>
		<path class="st0" d="M300.2,125.3c1,0,1.8-0.4,2.5-1.1l1.2,1.1c-0.9,1.1-2.1,1.7-3.8,1.7c-2.7,0-4.8-1.9-4.8-4.8
			c0-2.7,1.9-4.8,4.5-4.8c3,0,4.4,2.3,4.4,5c0,0.2,0,0.4,0,0.6h-6.8C297.8,124.4,298.8,125.3,300.2,125.3z M302.3,121.5
			c-0.1-1.4-0.9-2.4-2.4-2.4c-1.3,0-2.2,1-2.4,2.4H302.3z"/>
		<path class="st0" d="M309.3,127c-1.3,0-2.8-0.5-3.9-1.4l0.9-1.4c1,0.8,2.1,1.1,3,1.1s1.4-0.4,1.4-1l0,0c0-0.7-1-1-2.1-1.3
			c-1.4-0.4-2.9-0.9-2.9-2.7l0,0c0-1.8,1.5-2.8,3.3-2.8c1.2,0,2.4,0.4,3.4,1.1l-0.8,1.5c-0.9-0.5-1.8-0.9-2.6-0.9
			c-0.8,0-1.3,0.4-1.3,0.9l0,0c0,0.7,1,0.9,2.1,1.3c1.4,0.4,2.9,1,2.9,2.7l0,0C312.8,126,311.3,127,309.3,127z"/>
		<path class="st0" d="M176.8,143.4c0,0.8,0.4,1.2,1.1,1.2c0.5,0,0.9-0.1,1.3-0.3v1.7c-0.5,0.3-1.1,0.5-1.9,0.5
			c-1.6,0-2.7-0.7-2.7-2.7v-4.9h-1.2V137h1.2v-2.5h2.1v2.5h2.5v1.8h-2.5L176.8,143.4L176.8,143.4z"/>
		<path class="st0" d="M185.1,144.7c1,0,1.8-0.4,2.5-1.1l1.2,1.1c-0.9,1.1-2.1,1.7-3.8,1.7c-2.7,0-4.8-1.9-4.8-4.8
			c0-2.7,1.9-4.8,4.5-4.8c3,0,4.4,2.3,4.4,5c0,0.2,0,0.4,0,0.6h-6.8C182.7,143.9,183.7,144.7,185.1,144.7z M187.2,141
			c-0.1-1.4-0.9-2.4-2.4-2.4c-1.3,0-2.2,1-2.4,2.4H187.2z"/>
		<path class="st0" d="M195.3,146.5c-2.8,0-4.8-2.2-4.8-4.8c0-2.7,2-4.9,4.8-4.9c1.8,0,2.8,0.7,3.7,1.6l-1.3,1.4
			c-0.6-0.7-1.3-1.2-2.4-1.2c-1.5,0-2.7,1.3-2.7,3s1.1,3,2.8,3c1,0,1.7-0.5,2.4-1.2l1.3,1.3C198.2,145.7,197.2,146.5,195.3,146.5z"
			/>
		<path class="st0" d="M202.9,146.2h-2.1v-12.8h2.1v5c0.6-0.9,1.5-1.6,2.9-1.6c2.1,0,3.3,1.4,3.3,3.6v5.9H207V141
			c0-1.4-0.7-2.3-2-2.3c-1.2,0-2.1,0.9-2.1,2.3L202.9,146.2L202.9,146.2z"/>
		<path class="st0" d="M213.4,146.2h-2.1V137h2.1v1.4c0.6-0.9,1.5-1.6,2.9-1.6c2.1,0,3.3,1.4,3.3,3.6v5.9h-2.1V141
			c0-1.4-0.7-2.3-2-2.3c-1.2,0-2.1,0.9-2.1,2.3L213.4,146.2L213.4,146.2z"/>
		<path class="st0" d="M226.2,146.5c-2.8,0-4.9-2.2-4.9-4.8c0-2.7,2.1-4.9,5-4.9c2.8,0,4.9,2.2,4.9,4.8
			C231.2,144.3,229.1,146.5,226.2,146.5z M226.2,138.6c-1.7,0-2.8,1.3-2.8,3s1.2,3,2.8,3c1.7,0,2.8-1.3,2.8-3
			C229.1,140,227.9,138.6,226.2,138.6z"/>
		<path class="st0" d="M233.1,146.2v-12.8h2.1v12.8H233.1z"/>
		<path class="st0" d="M242.1,146.5c-2.8,0-4.9-2.2-4.9-4.8c0-2.7,2.1-4.9,5-4.9c2.8,0,4.9,2.2,4.9,4.8
			C247,144.3,244.9,146.5,242.1,146.5z M242.1,138.6c-1.7,0-2.8,1.3-2.8,3s1.2,3,2.8,3c1.7,0,2.8-1.3,2.8-3
			C244.9,140,243.7,138.6,242.1,138.6z"/>
		<path class="st0" d="M253,149.1c-1.5,0-3-0.4-4.1-1.1l0.8-1.6c1,0.6,2,1,3.3,1c1.9,0,2.9-1,2.9-2.8v-0.7c-0.8,1-1.7,1.7-3.3,1.7
			c-2.2,0-4.2-1.6-4.2-4.4s2.1-4.4,4.2-4.4c1.6,0,2.5,0.7,3.2,1.6V137h2.1v7.4C258,147.6,256.2,149.1,253,149.1z M253.1,138.6
			c-1.5,0-2.6,1-2.6,2.6c0,1.5,1.2,2.6,2.6,2.6c1.5,0,2.7-1,2.7-2.6C255.9,139.6,254.6,138.6,253.1,138.6z"/>
		<path class="st0" d="M260.3,135.6v-2h2.3v2H260.3z M260.4,146.2V137h2.1v9.3h-2.1V146.2z"/>
		<path class="st0" d="M269.2,144.7c1,0,1.8-0.4,2.5-1.1l1.2,1.1c-0.9,1.1-2.1,1.7-3.8,1.7c-2.7,0-4.8-1.9-4.8-4.8
			c0-2.7,1.9-4.8,4.5-4.8c3,0,4.4,2.3,4.4,5c0,0.2,0,0.4,0,0.6h-6.8C266.8,143.9,267.8,144.7,269.2,144.7z M271.3,141
			c-0.1-1.4-0.9-2.4-2.4-2.4c-1.3,0-2.2,1-2.4,2.4H271.3z"/>
		<path class="st0" d="M278.4,146.4c-1.3,0-2.8-0.5-3.9-1.4l0.9-1.4c1,0.8,2.1,1.1,3,1.1s1.4-0.4,1.4-1l0,0c0-0.7-1-1-2.1-1.3
			c-1.4-0.4-2.9-0.9-2.9-2.7l0,0c0-1.8,1.5-2.8,3.3-2.8c1.2,0,2.4,0.4,3.4,1.1l-0.8,1.5c-0.9-0.5-1.8-0.9-2.6-0.9
			c-0.8,0-1.3,0.4-1.3,0.9l0,0c0,0.7,1,0.9,2.1,1.3c1.4,0.4,2.9,1,2.9,2.7l0,0C281.8,145.5,280.3,146.4,278.4,146.4z"/>
		<path class="st0" d="M299.4,136.8c2,0,3.2,1.3,3.2,3.5v5.9h-2.1V141c0-1.5-0.7-2.3-1.9-2.3c-1.2,0-2,0.8-2,2.3v5.2h-2.1V141
			c0-1.4-0.7-2.2-1.9-2.2c-1.2,0-2,0.9-2,2.3v5.2h-2.1V137h2.1v1.4c0.6-0.8,1.4-1.6,2.8-1.6c1.3,0,2.3,0.7,2.8,1.6
			C297,137.4,298,136.8,299.4,136.8z"/>
		<path class="st0" d="M309.1,144.7c1,0,1.8-0.4,2.5-1.1l1.2,1.1c-0.9,1.1-2.1,1.7-3.8,1.7c-2.7,0-4.8-1.9-4.8-4.8
			c0-2.7,1.9-4.8,4.5-4.8c3,0,4.4,2.3,4.4,5c0,0.2,0,0.4,0,0.6h-6.8C306.7,143.9,307.8,144.7,309.1,144.7z M311.2,141
			c-0.1-1.4-0.9-2.4-2.4-2.4c-1.3,0-2.2,1-2.4,2.4H311.2z M307.9,135.8l1.9-2.9l1.9,0.9l-2.1,2H307.9z"/>
		<path class="st0" d="M322.1,146.2v-1.5c-0.7,1-1.7,1.7-3.2,1.7c-2.2,0-4.3-1.7-4.3-4.8s2.1-4.8,4.3-4.8c1.5,0,2.5,0.8,3.2,1.6v-5
			h2.1v12.8H322.1z M319.4,138.6c-1.5,0-2.7,1.1-2.7,3c0,1.8,1.2,3,2.7,3c1.4,0,2.7-1.2,2.7-3S320.9,138.6,319.4,138.6z"/>
		<path class="st0" d="M326.5,135.6v-2h2.3v2H326.5z M326.6,146.2V137h2.1v9.3h-2.1V146.2z"/>
		<path class="st0" d="M336.9,146.2v-1.1c-0.6,0.8-1.6,1.3-3,1.3c-1.8,0-3.3-1-3.3-2.9l0,0c0-2,1.6-3,3.8-3c1.1,0,1.8,0.2,2.6,0.4
			v-0.2c0-1.3-0.8-2-2.3-2c-1,0-1.8,0.2-2.7,0.6l-0.6-1.7c1-0.5,2-0.8,3.5-0.8c2.7,0,4.1,1.4,4.1,3.9v5.5H336.9z M336.9,142.3
			c-0.5-0.2-1.3-0.4-2.1-0.4c-1.3,0-2.1,0.5-2.1,1.5l0,0c0,0.9,0.8,1.4,1.8,1.4c1.4,0,2.5-0.8,2.5-1.9L336.9,142.3L336.9,142.3z"/>
		<path class="st0" d="M344.3,146.4c-1.3,0-2.8-0.5-3.9-1.4l0.9-1.4c1,0.8,2.1,1.1,3,1.1s1.4-0.4,1.4-1l0,0c0-0.7-1-1-2.1-1.3
			c-1.4-0.4-2.9-0.9-2.9-2.7l0,0c0-1.8,1.5-2.8,3.3-2.8c1.2,0,2.4,0.4,3.4,1.1l-0.8,1.5c-0.9-0.5-1.8-0.9-2.6-0.9
			c-0.8,0-1.3,0.4-1.3,0.9l0,0c0,0.7,1,0.9,2.1,1.3c1.4,0.4,2.9,1,2.9,2.7l0,0C347.8,145.5,346.2,146.4,344.3,146.4z"/>
	</g>
	<g>
		<path class="st1" d="M80.4,74.4v-0.2c0-15.2,9.5-28.1,23.9-32.8C96.4,34,85.8,29.5,74.1,29.5c-12.3,0-23.3,5-31.4,13
			c-8,8-13,19.1-13,31.4c0,12.2,5,23.3,13,31.4c8,8,19.1,13,31.4,13c11.4,0,21.8-4.3,29.7-11.4C89.7,102.2,80.4,89.4,80.4,74.4z"/>
		<path class="st1" d="M95.8,74v0.2c0,10.5,7.1,19.4,17.3,20.8c3.4-6.3,5.3-13.4,5.3-21.1c0-7.4-1.8-14.4-5.1-20.6
			C102.9,54.5,95.8,63.3,95.8,74z"/>
		<path class="st2" d="M113.1,95c-10.3-1.4-17.3-10.3-17.3-20.8V74c0-10.6,7.1-19.5,17.6-20.7c-2.1-4-4.8-7.6-7.9-10.8
			c-0.4-0.4-0.8-0.8-1.2-1.1C90,46.1,80.4,59,80.4,74.2v0.2c0,15,9.3,27.8,23.4,32.5c0.6-0.5,1.1-1,1.7-1.6
			C108.5,102.2,111.1,98.8,113.1,95z"/>
	</g>
	<path class="st0" d="M83.5,71.7h-7.2v-7.2c0-1.4-1-2.5-2.2-2.5s-2.2,1.1-2.2,2.5v7.2h-7.2c-1.4,0-2.5,1-2.5,2.2s1.1,2.2,2.5,2.2
		h7.2v7.3c0,1.4,1,2.5,2.2,2.5s2.2-1.1,2.2-2.5v-7.3h7.2c1.4,0,2.5-1,2.5-2.2S84.9,71.7,83.5,71.7z"/>
	<g>
		<g>
			<g>
				<path class="st0" d="M264.4,56.6c-3.3,0-5.9-2.7-5.9-5.9s2.6-6,6-6c3.3,0,5.9,2.7,5.9,5.9C270.4,53.9,267.8,56.6,264.4,56.6z
					 M264.5,45.3c-3,0-5.3,2.4-5.3,5.3c0,2.9,2.2,5.3,5.2,5.3s5.3-2.4,5.3-5.3S267.5,45.3,264.5,45.3z M264.5,53.8
					c-1.9,0-3.2-1.4-3.2-3.2s1.3-3.3,3.3-3.3c1.2,0,1.9,0.4,2.5,1l-0.9,1.1c-0.5-0.4-1-0.7-1.6-0.7c-1.1,0-1.8,0.9-1.8,2
					s0.7,2,1.8,2c0.7,0,1.1-0.3,1.6-0.7l0.9,0.9C266.5,53.4,265.7,53.8,264.5,53.8z"/>
			</g>
		</g>
	</g>
</g>
</svg>
