<?xml version="1.0" encoding="UTF-8"?>
<svg id="Layer_1" xmlns="http://www.w3.org/2000/svg" version="1.1" viewBox="0 0 500 500">
  <!-- Generator: Adobe Illustrator 29.5.1, SVG Export Plug-In . SVG Version: 2.1.0 Build 141)  -->
  <rect x="355" y="19" width="14" height="28"/>
  <rect x="327" y="103" width="14" height="14"/>
  <polygon points="299 75 299 33 285 33 285 19 257 19 257 33 271 33 271 47 285 47 285 61 271 61 271 75 299 75"/>
  <rect x="299" y="19" width="28" height="14"/>
  <polygon points="355 117 369 117 369 75 355 75 355 47 341 47 341 61 327 61 327 47 313 47 313 89 341 89 341 103 355 103 355 117"/>
  <polygon points="327 187 341 187 341 173 355 173 355 187 369 187 369 201 383 201 383 187 411 187 411 173 369 173 369 145 355 145 355 159 341 159 341 145 355 145 355 131 327 131 327 187"/>
  <rect x="313" y="117" width="14" height="14"/>
  <rect x="355" y="271" width="28" height="14"/>
  <polygon points="187 19 187 33 159 33 159 47 145 47 145 61 173 61 173 47 215 47 215 33 229 33 229 19 187 19"/>
  <polygon points="439 187 439 173 425 173 425 201 439 201 439 215 453 215 453 201 467 201 467 173 453 173 453 187 439 187"/>
  <rect x="383" y="145" width="14" height="14"/>
  <rect x="369" y="131" width="14" height="14"/>
  <rect x="341" y="187" width="14" height="14"/>
  <path d="M432,47c-11.6,0-21,9.4-21,21s9.4,21,21,21,21-9.4,21-21-9.4-21-21-21Z"/>
  <polygon points="467 131 453 131 453 145 425 145 425 159 439 159 439 173 453 173 453 159 481 159 481 145 467 145 467 131"/>
  <rect x="411" y="131" width="14" height="14"/>
  <rect x="131" y="397" width="14" height="28"/>
  <polygon points="159 453 159 439 173 439 173 425 145 425 145 439 131 439 131 453 145 453 145 467 187 467 187 453 159 453"/>
  <rect x="467" y="467" width="14" height="14"/>
  <rect x="145" y="19" width="14" height="14"/>
  <rect x="453" y="425" width="14" height="14"/>
  <path d="M68.1,117c27.1,0,49-22,48.9-49,0-27-21.9-48.9-48.9-49h-.1c-27.1,0-49,22-48.9,49.1,0,27.1,22,49,49.1,48.9ZM67.9,33h0c19.3,0,35,15.7,35,35.1,0,19.3-15.7,34.9-35,35h0c-19.3,0-35-15.7-35-35,0-19.3,15.7-34.9,35-35Z"/>
  <rect x="271" y="397" width="28" height="14"/>
  <path d="M68,89c11.6,0,21-9.4,21-21s-9.4-21-21-21-21,9.4-21,21,9.4,21,21,21Z"/>
  <path d="M68,411c-11.6,0-21,9.4-21,21s9.4,21,21,21,21-9.4,21-21-9.4-21-21-21Z"/>
  <path d="M68,382.9h0c-27,0-48.9,21.9-48.9,49h0c0,27.2,22,49.1,49,49,27.1,0,49-22,49-49,0-27-22-49-49-49ZM68,467.1h0c-19.3,0-34.9-15.7-35-35h0c0-19.4,15.7-35.1,35.1-35,19.3,0,35,15.7,35,35,0,19.3-15.7,35-35,35Z"/>
  <path d="M432,19h0c-27.1,0-49,22-48.9,49.1,0,27.1,22,49,49.1,48.9,27,0,48.9-21.9,48.9-48.9h0c0-27.1-22-49-49-49.1ZM467,68c0,19.3-15.7,34.9-35,35h0c-19.3,0-35-15.7-34.9-35,0-19.3,15.7-35,35.1-35,19.3,0,34.9,15.7,34.9,35h0Z"/>
  <rect x="467" y="383" width="14" height="14"/>
  <polygon points="145 145 145 131 131 131 131 159 159 159 159 145 145 145"/>
  <polygon points="243 439 257 439 257 453 243 453 243 467 285 467 285 481 299 481 299 453 271 453 271 439 285 439 285 425 257 425 257 411 243 411 243 439"/>
  <polygon points="33 229 33 257 47 257 47 271 33 271 33 299 47 299 47 285 61 285 61 271 75 271 75 257 61 257 61 229 33 229"/>
  <rect x="131" y="103" width="14" height="14"/>
  <rect x="131" y="33" width="14" height="14"/>
  <polygon points="47 327 19 327 19 355 33 355 33 341 61 341 61 299 47 299 47 327"/>
  <rect x="47" y="355" width="28" height="14"/>
  <rect x="215" y="453" width="14" height="14"/>
  <rect x="75" y="285" width="14" height="14"/>
  <rect x="75" y="341" width="14" height="14"/>
  <rect x="89" y="257" width="14" height="14"/>
  <polygon points="201 117 201 75 229 75 229 61 187 61 187 75 131 75 131 89 145 89 145 103 159 103 159 117 173 117 173 103 187 103 187 117 173 117 173 145 187 145 187 131 215 131 215 117 201 117"/>
  <polygon points="285 131 285 159 299 159 299 187 313 187 313 131 285 131"/>
  <rect x="131" y="187" width="14" height="14"/>
  <rect x="131" y="215" width="14" height="14"/>
  <rect x="313" y="397" width="14" height="14"/>
  <polygon points="173 187 173 159 159 159 159 173 145 173 145 187 173 187"/>
  <polygon points="271 117 285 117 285 103 299 103 299 89 271 89 271 117"/>
  <rect x="299" y="103" width="14" height="14"/>
  <polygon points="243 75 257 75 257 47 243 47 243 33 229 33 229 61 243 61 243 75"/>
  <rect x="257" y="75" width="14" height="14"/>
  <polygon points="215 201 215 187 243 187 243 201 257 201 257 159 243 159 243 173 215 173 215 159 243 159 243 131 271 131 271 117 257 117 257 103 243 103 243 117 229 117 229 131 215 131 215 145 201 145 201 187 173 187 173 201 215 201"/>
  <rect x="103" y="243" width="14" height="14"/>
  <rect x="89" y="355" width="28" height="14"/>
  <polygon points="201 411 187 411 187 439 201 439 201 453 215 453 215 425 201 425 201 411"/>
  <rect x="201" y="397" width="14" height="14"/>
  <rect x="117" y="201" width="14" height="14"/>
  <rect x="117" y="229" width="14" height="14"/>
  <polygon points="117 201 117 187 103 187 103 173 117 173 117 159 103 159 103 145 117 145 117 131 75 131 75 145 89 145 89 159 75 159 75 187 61 187 61 131 47 131 47 173 33 173 33 187 19 187 19 215 33 215 33 201 61 201 61 229 89 229 89 215 75 215 75 201 89 201 89 215 103 215 103 201 117 201"/>
  <rect x="103" y="215" width="14" height="14"/>
  <rect x="215" y="411" width="14" height="14"/>
  <rect x="159" y="201" width="14" height="28"/>
  <polygon points="425 215 411 215 411 201 397 201 397 215 341 215 341 229 355 229 355 243 369 243 369 229 411 229 411 271 397 271 397 285 411 285 411 299 425 299 425 313 453 313 453 299 439 299 439 285 425 285 425 271 439 271 439 257 425 257 425 215"/>
  <polygon points="215 89 215 117 229 117 229 103 243 103 243 89 215 89"/>
  <polygon points="453 243 453 229 439 229 439 257 481 257 481 243 453 243"/>
  <rect x="383" y="383" width="14" height="14"/>
  <path d="M467,285v28h-14v14h14v28h-14v14h-14v14h-14v-14h14v-14h-70v-28h14v-14h14v-14h-42v-14h-28v-14h28v-14h-14v-28h-42v14h-14v28h14v-14h14v-14h14v14h-14v14h-14v14h14v14h28v42h-42v-28h14v-14h-14v-14h-14v14h-14v14h-14v-28h-14v28h-14v-14h-14v-14h28v-14h14v-14h14v-28h-14v14h-14v14h-14v14h-14v-28h28v-14h-42v-14h-14v14h-14v14h28v70h-14v-28h-14v28h-28v-14h-14v-28h14v14h28v-14h-14v-28h-14v14h-28v14h-14v14h14v14h-28v14h28v14h-28v14h28v14h14v28h28v14h42v-14h-28v-14h28v-14h28v-14h-28v-14h84v14h-42v14h-14v14h-28v14h14v14h14v14h14v-14h14v-14h-14v-14h14v14h28v-14h28v14h14v14h14v-14h14v56h14v-14h14v14h14v-14h14v14h14v-14h28v-42h14v-14h14v-98h-42v14h28ZM159,369h-14v-14h14v14ZM187,341h-42v-14h42v14ZM355,369h-28v-14h28v14ZM411,411h-42v-42h42v42Z"/>
  <rect x="313" y="313" width="14" height="14"/>
  <rect x="397" y="327" width="28" height="14"/>
  <rect x="369" y="243" width="28" height="14"/>
  <rect x="467" y="201" width="14" height="14"/>
  <polygon points="285 173 271 173 271 201 285 201 285 215 271 215 271 229 299 229 299 187 285 187 285 173"/>
  <rect x="313" y="201" width="14" height="14"/>
  <rect x="271" y="271" width="14" height="14"/>
  <rect x="243" y="215" width="14" height="14"/>
  <rect x="299" y="411" width="14" height="28"/>
  <rect x="299" y="383" width="14" height="14"/>
  <rect x="215" y="201" width="28" height="14"/>
  <rect x="439" y="327" width="14" height="14"/>
  <rect x="257" y="201" width="14" height="14"/>
  <polygon points="355 453 341 453 341 425 327 425 327 439 313 439 313 467 341 467 341 481 369 481 369 467 355 467 355 453"/>
  <polygon points="425 439 425 453 383 453 383 439 369 439 369 467 397 467 397 481 425 481 425 467 439 467 439 453 453 453 453 439 425 439"/>
</svg>