<?xml version="1.0" encoding="UTF-8"?>
<svg id="Layer_1" xmlns="http://www.w3.org/2000/svg" version="1.1" viewBox="0 0 500 500">
  <!-- Generator: Adobe Illustrator 29.5.1, SVG Export Plug-In . SVG Version: 2.1.0 Build 141)  -->
  <defs>
    <style>
      .st0 {
        fill: #231f20;
      }
    </style>
  </defs>
  <rect class="st0" x="383" y="299" width="14" height="28"/>
  <rect class="st0" x="103" y="215" width="14" height="14"/>
  <rect class="st0" x="257" y="341" width="14" height="14"/>
  <rect class="st0" x="467" y="453" width="14" height="14"/>
  <polygon class="st0" points="425 481 425 467 439 467 439 453 411 453 411 467 397 467 397 481 425 481"/>
  <rect class="st0" x="439" y="467" width="14" height="14"/>
  <rect class="st0" x="467" y="383" width="14" height="14"/>
  <polygon class="st0" points="369 453 355 453 355 481 383 481 383 467 369 467 369 453"/>
  <path class="st0" d="M68,382.9h0c-27,0-48.9,21.9-48.9,49h0c0,27.2,22,49.1,49,49,27.1,0,49-22,49-49,0-27-22-49-49-49ZM68,467.1h0c-19.3,0-34.9-15.7-35-35h0c0-19.4,15.7-35.1,35.1-35,19.3,0,35,15.7,35,35,0,19.3-15.7,35-35,35Z"/>
  <rect class="st0" x="131" y="425" width="14" height="28"/>
  <rect class="st0" x="313" y="425" width="14" height="14"/>
  <rect class="st0" x="285" y="397" width="14" height="14"/>
  <path class="st0" d="M68.1,117c27.1,0,49-22,48.9-49,0-27-21.9-48.9-48.9-49h-.1c-27.1,0-49,22-48.9,49.1,0,27.1,22,49,49.1,48.9ZM67.9,33h0c19.3,0,35,15.7,35,35.1,0,19.3-15.7,34.9-35,35h0c-19.3,0-35-15.7-35-35,0-19.3,15.7-34.9,35-35Z"/>
  <path class="st0" d="M68,411c-11.6,0-21,9.4-21,21s9.4,21,21,21,21-9.4,21-21-9.4-21-21-21Z"/>
  <rect class="st0" x="131" y="33" width="14" height="14"/>
  <path class="st0" d="M68,89c11.6,0,21-9.4,21-21s-9.4-21-21-21-21,9.4-21,21,9.4,21,21,21Z"/>
  <rect class="st0" x="19" y="243" width="14" height="14"/>
  <rect class="st0" x="243" y="355" width="14" height="14"/>
  <polygon class="st0" points="75 271 75 257 61 257 61 243 47 243 47 257 33 257 33 271 75 271"/>
  <polygon class="st0" points="397 187 411 187 411 173 383 173 383 201 397 201 397 187"/>
  <polygon class="st0" points="411 159 411 131 369 131 369 145 355 145 355 159 369 159 369 173 383 173 383 159 411 159"/>
  <polygon class="st0" points="19 341 19 355 33 355 33 369 47 369 47 341 19 341"/>
  <rect class="st0" x="355" y="89" width="14" height="42"/>
  <rect class="st0" x="411" y="327" width="14" height="14"/>
  <rect class="st0" x="299" y="327" width="14" height="14"/>
  <rect class="st0" x="425" y="187" width="14" height="14"/>
  <rect class="st0" x="19" y="187" width="14" height="14"/>
  <rect class="st0" x="19" y="285" width="14" height="14"/>
  <polygon class="st0" points="61 145 75 145 75 131 47 131 47 145 33 145 33 131 19 131 19 173 33 173 33 159 47 159 47 187 61 187 61 145"/>
  <rect class="st0" x="355" y="173" width="14" height="14"/>
  <rect class="st0" x="355" y="19" width="14" height="14"/>
  <rect class="st0" x="75" y="159" width="42" height="14"/>
  <polygon class="st0" points="131 201 117 201 117 215 145 215 145 229 131 229 131 257 159 257 159 271 187 271 187 257 201 257 201 243 215 243 215 257 229 257 229 229 215 229 215 215 229 215 229 201 201 201 201 215 173 215 173 201 201 201 201 187 187 187 187 173 173 173 173 187 145 187 145 145 159 145 159 159 187 159 187 173 201 173 201 131 187 131 187 145 173 145 173 103 159 103 159 131 145 131 145 89 131 89 131 131 89 131 89 145 131 145 131 173 117 173 117 187 131 187 131 201"/>
  <rect class="st0" x="257" y="397" width="14" height="14"/>
  <rect class="st0" x="299" y="369" width="14" height="14"/>
  <polygon class="st0" points="257 369 257 383 271 383 271 397 285 397 285 369 257 369"/>
  <rect class="st0" x="285" y="341" width="14" height="28"/>
  <rect class="st0" x="47" y="327" width="28" height="14"/>
  <rect class="st0" x="313" y="383" width="14" height="14"/>
  <polygon class="st0" points="229 453 229 439 215 439 215 453 187 453 187 467 201 467 201 481 215 481 215 467 271 467 271 481 341 481 341 467 327 467 327 453 285 453 285 439 271 439 271 453 229 453"/>
  <rect class="st0" x="75" y="341" width="14" height="14"/>
  <rect class="st0" x="159" y="439" width="14" height="14"/>
  <polygon class="st0" points="229 411 229 397 257 397 257 383 229 383 229 355 243 355 243 327 271 327 271 341 285 341 285 327 299 327 299 299 313 299 313 313 327 313 327 341 341 341 341 327 369 327 369 299 383 299 383 285 369 285 369 271 355 271 355 313 341 313 341 299 327 299 327 285 313 285 313 257 299 257 299 271 285 271 285 313 257 313 257 285 243 285 243 271 257 271 257 285 271 285 271 243 243 243 243 257 229 257 229 299 243 299 243 313 229 313 229 341 215 341 215 355 201 355 201 341 187 341 187 355 173 355 173 369 187 369 187 383 159 383 159 355 89 355 89 369 131 369 131 411 159 411 159 425 173 425 173 439 201 439 201 425 187 425 187 411 173 411 173 397 215 397 215 411 201 411 201 425 243 425 243 439 271 439 271 425 257 425 257 411 229 411"/>
  <rect class="st0" x="383" y="383" width="14" height="14"/>
  <polygon class="st0" points="159 467 159 453 145 453 145 467 131 467 131 481 187 481 187 467 159 467"/>
  <rect class="st0" x="313" y="355" width="14" height="14"/>
  <rect class="st0" x="439" y="159" width="14" height="14"/>
  <path class="st0" d="M425,355h-42v-28h-14v14h-28v28h14v14h-14v14h14v14h-14v-14h-14v28h14v14h42v28h14v-42h14v14h14v-14h14v14h42v-28h-14v14h-14v-14h-28v-14h14v-14h-14v-28ZM411,411h-42v-42h42v42Z"/>
  <path class="st0" d="M432,47c-11.6,0-21,9.4-21,21s9.4,21,21,21,21-9.4,21-21-9.4-21-21-21Z"/>
  <rect class="st0" x="425" y="131" width="14" height="14"/>
  <path class="st0" d="M432,19h0c-27.1,0-49,22-48.9,49.1,0,27.1,22,49,49.1,48.9,27,0,48.9-21.9,48.9-48.9h0c0-27.1-22-49-49-49.1ZM467,68c0,19.3-15.7,34.9-35,35h0c-19.3,0-35-15.7-34.9-35,0-19.3,15.7-35,35.1-35,19.3,0,34.9,15.7,34.9,35h0Z"/>
  <polygon class="st0" points="467 131 453 131 453 159 467 159 467 173 453 173 453 187 481 187 481 145 467 145 467 131"/>
  <polygon class="st0" points="453 271 453 285 481 285 481 257 467 257 467 271 453 271"/>
  <polygon class="st0" points="411 285 397 285 397 299 425 299 425 327 439 327 439 383 453 383 453 369 481 369 481 355 467 355 467 341 453 341 453 327 481 327 481 313 439 313 439 285 425 285 425 271 411 271 411 285"/>
  <polygon class="st0" points="453 201 439 201 439 215 425 215 425 201 411 201 411 215 397 215 397 229 411 229 411 243 425 243 425 229 439 229 439 243 425 243 425 271 453 271 453 257 467 257 467 243 453 243 453 201"/>
  <rect class="st0" x="467" y="215" width="14" height="28"/>
  <rect class="st0" x="341" y="61" width="14" height="14"/>
  <rect class="st0" x="173" y="47" width="14" height="14"/>
  <rect class="st0" x="271" y="131" width="28" height="14"/>
  <rect class="st0" x="257" y="145" width="14" height="14"/>
  <rect class="st0" x="271" y="89" width="14" height="28"/>
  <polygon class="st0" points="285 229 299 229 299 215 285 215 285 201 271 201 271 187 243 187 243 173 257 173 257 159 243 159 243 131 229 131 229 173 215 173 215 187 229 187 229 201 257 201 257 215 271 215 271 243 285 243 285 229"/>
  <rect class="st0" x="243" y="215" width="14" height="14"/>
  <rect class="st0" x="215" y="299" width="14" height="14"/>
  <polygon class="st0" points="201 327 201 313 173 313 173 341 187 341 187 327 201 327"/>
  <rect class="st0" x="285" y="243" width="14" height="14"/>
  <rect class="st0" x="257" y="117" width="14" height="14"/>
  <polygon class="st0" points="61 313 61 299 33 299 33 313 19 313 19 327 47 327 47 313 61 313"/>
  <rect class="st0" x="187" y="285" width="14" height="14"/>
  <rect class="st0" x="243" y="103" width="14" height="14"/>
  <polygon class="st0" points="89 201 89 215 103 215 103 201 117 201 117 187 61 187 61 201 89 201"/>
  <rect class="st0" x="201" y="117" width="14" height="14"/>
  <polygon class="st0" points="61 215 61 201 33 201 33 229 89 229 89 215 61 215"/>
  <rect class="st0" x="61" y="285" width="28" height="14"/>
  <rect class="st0" x="327" y="271" width="14" height="14"/>
  <path class="st0" d="M117,285v14h-28v42h42v-14h14v-14h-14v-14h14v-14h-14v-28h-14v14h-14v-14h14v-14h-14v-14h-14v56h28ZM117,327h-14v-14h14v14Z"/>
  <polygon class="st0" points="257 89 271 89 271 61 257 61 257 47 243 47 243 75 257 75 257 89"/>
  <polygon class="st0" points="201 89 215 89 215 75 229 75 229 61 215 61 215 33 201 33 201 19 159 19 159 47 173 47 173 33 187 33 187 47 201 47 201 75 173 75 173 61 131 61 131 75 159 75 159 89 187 89 187 117 201 117 201 89"/>
  <path class="st0" d="M285,89h14v-28h14v28h-14v42h14v14h-14v14h14v28h-28v14h28v14h14v14h14v-14h14v28h-28v-14h-28v14h14v14h56v-14h14v42h14v-28h14v-14h-14v-14h-28v-14h14v-14h-42v-28h-14v-42h14v-42h-14v-42h28v-14h-14v-14h-14v14h-14v-14h-56v14h28v14h-14v14h14v28ZM327,103v14h-14v-14h14Z"/>
  <polygon class="st0" points="215 89 215 117 229 117 229 103 243 103 243 75 229 75 229 89 215 89"/>
  <polygon class="st0" points="173 285 159 285 159 299 145 299 145 313 173 313 173 285"/>
</svg>