<?xml version="1.0" encoding="UTF-8"?>
<svg id="Layer_1" xmlns="http://www.w3.org/2000/svg" version="1.1" viewBox="0 0 500 500">
  <!-- Generator: Adobe Illustrator 29.5.1, SVG Export Plug-In . SVG Version: 2.1.0 Build 141)  -->
  <defs>
    <style>
      .st0 {
        fill: none;
      }
    </style>
  </defs>
  <rect class="st0" x="103" y="145" width="14" height="14"/>
  <rect class="st0" x="299" y="75" width="14" height="14"/>
  <rect class="st0" x="33" y="173" width="14" height="14"/>
  <rect class="st0" x="173" y="33" width="14" height="14"/>
  <rect class="st0" x="47" y="159" width="14" height="14"/>
  <rect class="st0" x="187" y="47" width="14" height="14"/>
  <rect class="st0" x="313" y="47" width="14" height="28"/>
  <polygon class="st0" points="271 47 271 61 285 61 285 75 299 75 299 47 271 47"/>
  <rect class="st0" x="257" y="33" width="14" height="14"/>
  <rect class="st0" x="229" y="47" width="14" height="14"/>
  <polygon class="st0" points="215 89 215 103 229 103 229 131 243 131 243 145 229 145 229 159 243 159 243 173 229 173 229 187 257 187 257 159 271 159 271 173 299 173 299 159 285 159 285 145 257 145 257 131 271 131 271 103 257 103 257 117 243 117 243 89 229 89 229 61 201 61 201 75 187 75 187 89 215 89"/>
  <rect class="st0" x="299" y="341" width="14" height="14"/>
  <rect class="st0" x="159" y="187" width="14" height="14"/>
  <polygon class="st0" points="327 327 327 313 313 313 313 299 299 299 299 327 327 327"/>
  <rect class="st0" x="341" y="397" width="14" height="14"/>
  <rect class="st0" x="285" y="327" width="14" height="14"/>
  <polygon class="st0" points="285 229 313 229 313 215 341 215 341 271 383 271 383 257 369 257 369 243 355 243 355 229 369 229 369 215 383 215 383 229 369 229 369 243 397 243 397 229 411 229 411 187 383 187 383 201 327 201 327 159 313 159 313 173 299 173 299 187 313 187 313 201 285 201 285 187 271 187 271 215 285 215 285 229"/>
  <polygon class="st0" points="215 159 201 159 201 145 229 145 229 131 201 131 201 117 187 117 187 89 173 89 173 131 187 131 187 145 159 145 159 173 201 173 201 187 215 187 215 159"/>
  <polygon class="st0" points="285 271 271 271 271 285 257 285 257 313 271 313 271 327 285 327 285 271"/>
  <rect class="st0" x="229" y="299" width="14" height="14"/>
  <rect class="st0" x="299" y="257" width="14" height="28"/>
  <rect class="st0" x="89" y="285" width="28" height="14"/>
  <polygon class="st0" points="89 299 61 299 61 313 75 313 75 327 89 327 89 299"/>
  <rect class="st0" x="33" y="215" width="14" height="14"/>
  <rect class="st0" x="425" y="187" width="28" height="14"/>
  <rect class="st0" x="103" y="313" width="14" height="14"/>
  <rect class="st0" x="103" y="257" width="14" height="14"/>
  <path class="st0" d="M67.9,103s0,0,0,0c19.3,0,35-15.6,35-34.9,0-19.3-15.6-35-34.9-35h-.1c-19.3,0-34.9,15.7-34.9,34.9,0,19.3,15.6,35,34.9,35ZM68,47c11.6,0,21,9.4,21,21s-9.4,21-21,21-21-9.4-21-21,9.4-21,21-21Z"/>
  <path class="st0" d="M68,397.1c-19.3,0-35,15.6-35,34.9h0c0,19.4,15.7,35,34.9,35,0,0,0,0,0,0,19.3,0,35-15.6,35-34.9,0-19.3-15.6-35-34.9-35ZM68,453c-11.6,0-21-9.4-21-21s9.4-21,21-21,21,9.4,21,21-9.4,21-21,21Z"/>
  <rect class="st0" x="131" y="299" width="14" height="14"/>
  <polygon class="st0" points="327 159 355 159 355 145 341 145 341 131 327 131 327 159"/>
  <polygon class="st0" points="313 145 313 131 299 131 299 103 285 103 285 145 313 145"/>
  <polygon class="st0" points="271 89 271 75 257 75 257 61 243 61 243 89 271 89"/>
  <rect class="st0" x="271" y="89" width="14" height="14"/>
  <rect class="st0" x="313" y="89" width="14" height="28"/>
  <rect class="st0" x="201" y="103" width="14" height="14"/>
  <rect class="st0" x="341" y="327" width="28" height="14"/>
  <rect class="st0" x="383" y="271" width="14" height="28"/>
  <rect class="st0" x="369" y="299" width="14" height="28"/>
  <polygon class="st0" points="313 397 313 383 327 383 327 397 341 397 341 383 355 383 355 369 299 369 299 383 285 383 285 397 313 397"/>
  <rect class="st0" x="313" y="229" width="14" height="28"/>
  <polygon class="st0" points="271 355 257 355 257 369 271 369 271 383 285 383 285 341 271 341 271 355"/>
  <polygon class="st0" points="257 341 271 341 271 327 243 327 243 355 257 355 257 341"/>
  <polygon class="st0" points="439 327 425 327 425 341 411 341 411 327 425 327 425 299 397 299 397 327 383 327 383 355 425 355 425 383 439 383 439 327"/>
  <polygon class="st0" points="341 313 355 313 355 285 327 285 327 299 341 299 341 313"/>
  <polygon class="st0" points="187 383 201 383 201 369 229 369 229 383 257 383 257 369 243 369 243 355 187 355 187 383"/>
  <rect class="st0" x="453" y="173" width="14" height="14"/>
  <path class="st0" d="M369,369v42h42v-42h-42ZM397,397h-14v-14h14v14Z"/>
  <rect class="st0" x="257" y="383" width="14" height="14"/>
  <rect class="st0" x="243" y="397" width="14" height="14"/>
  <rect class="st0" x="271" y="243" width="14" height="14"/>
  <rect class="st0" x="187" y="411" width="14" height="14"/>
  <polygon class="st0" points="439 229 425 229 425 243 411 243 411 257 425 257 425 271 439 271 439 229"/>
  <polygon class="st0" points="215 453 215 439 229 439 229 453 271 453 271 439 243 439 243 411 229 411 229 397 215 397 215 425 201 425 201 439 173 439 173 453 159 453 159 467 187 467 187 453 215 453"/>
  <rect class="st0" x="439" y="215" width="14" height="14"/>
  <rect class="st0" x="411" y="271" width="14" height="14"/>
  <polygon class="st0" points="383 439 341 439 341 425 327 425 327 439 313 439 313 425 327 425 327 397 313 397 313 411 285 411 285 397 271 397 271 411 257 411 257 425 271 425 271 439 285 439 285 453 327 453 327 467 383 467 383 439"/>
  <path class="st0" d="M432.1,32.9c-19.3,0-35,15.6-35.1,34.9,0,19.3,15.6,35,34.9,35.1,0,0,0,0,0,0,19.3,0,35-15.6,35-34.9h0c0-19.4-15.7-35-34.9-35.1ZM432,89c-11.6,0-21-9.4-21-21s9.4-21,21-21,21,9.4,21,21-9.4,21-21,21Z"/>
  <rect class="st0" x="173" y="383" width="14" height="28"/>
  <polygon points="159 173 159 145 145 145 145 89 131 89 131 131 89 131 89 159 75 159 75 131 47 131 47 159 61 159 61 173 47 173 47 187 103 187 103 173 117 173 117 159 103 159 103 145 117 145 117 159 131 159 131 173 145 173 145 201 159 201 159 187 173 187 173 201 187 201 187 187 201 187 201 173 159 173"/>
  <rect x="313" y="425" width="14" height="14"/>
  <polygon points="271 187 285 187 285 201 313 201 313 187 299 187 299 173 271 173 271 159 257 159 257 187 229 187 229 173 243 173 243 159 229 159 229 145 201 145 201 159 215 159 215 187 201 187 201 229 215 229 215 201 229 201 229 215 271 215 271 187"/>
  <rect x="285" y="397" width="28" height="14"/>
  <polygon points="47 173 47 159 33 159 33 131 19 131 19 187 33 187 33 173 47 173"/>
  <rect x="257" y="369" width="14" height="14"/>
  <rect x="313" y="383" width="14" height="14"/>
  <polygon points="327 159 327 201 383 201 383 187 369 187 369 173 355 173 355 159 327 159"/>
  <rect x="257" y="341" width="14" height="14"/>
  <polygon points="243 61 257 61 257 75 271 75 271 89 285 89 285 103 299 103 299 131 313 131 313 145 285 145 285 159 299 159 299 173 313 173 313 159 327 159 327 131 341 131 341 103 355 103 355 75 341 75 341 47 355 47 355 33 341 33 341 19 327 19 327 33 313 33 313 47 327 47 327 75 313 75 313 89 327 89 327 117 313 117 313 89 299 89 299 75 285 75 285 61 271 61 271 47 257 47 257 33 271 33 271 19 243 19 243 33 229 33 229 47 243 47 243 61"/>
  <rect x="299" y="47" width="14" height="28"/>
  <polygon points="355 145 355 159 369 159 369 145 397 145 397 159 425 159 425 145 411 145 411 131 341 131 341 145 355 145"/>
  <polygon points="257 397 257 383 229 383 229 369 201 369 201 383 187 383 187 411 201 411 201 425 215 425 215 397 229 397 229 411 243 411 243 397 257 397"/>
  <rect x="271" y="33" width="28" height="14"/>
  <polygon points="187 145 187 131 173 131 173 89 159 89 159 145 187 145"/>
  <polygon points="173 47 173 33 159 33 159 61 187 61 187 47 173 47"/>
  <rect x="187" y="61" width="14" height="14"/>
  <polygon points="187 47 201 47 201 33 215 33 215 19 173 19 173 33 187 33 187 47"/>
  <rect x="201" y="47" width="28" height="14"/>
  <polygon points="243 439 271 439 271 425 257 425 257 411 243 411 243 439"/>
  <path d="M425,355h-42v-28h-14v14h-28v-14h28v-28h14v-28h-42v-56h-28v14h14v28h-14v28h-14v-28h14v-28h-28v-14h-14v14h-14v42h-14v14h-14v14h14v14h-14v28h-14v-14h-14v14h-14v14h56v-28h28v-14h-14v-28h14v-14h14v56h14v-28h14v14h14v14h-28v14h14v14h-14v-14h-14v42h14v-14h56v14h-14v14h14v14h-14v-14h-14v28h14v14h42v28h14v-42h14v14h14v-14h14v14h42v-28h-14v14h-14v-14h-28v-14h14v-14h-14v-28ZM285,257h-14v-14h14v14ZM327,299v-14h28v28h-14v-14h-14ZM411,411h-42v-42h42v42Z"/>
  <rect x="89" y="215" width="28" height="14"/>
  <polygon points="453 201 425 201 425 187 453 187 453 173 467 173 467 159 439 159 439 173 383 173 383 187 411 187 411 229 397 229 397 243 369 243 369 257 383 257 383 271 397 271 397 299 425 299 425 327 439 327 439 383 453 383 453 355 467 355 467 397 481 397 481 341 453 341 453 327 481 327 481 313 439 313 439 271 425 271 425 285 411 285 411 271 425 271 425 257 411 257 411 243 425 243 425 229 439 229 439 215 453 215 453 229 481 229 481 215 467 215 467 187 453 187 453 201"/>
  <polygon points="439 271 481 271 481 257 453 257 453 229 439 229 439 271"/>
  <rect x="131" y="215" width="14" height="28"/>
  <rect x="467" y="173" width="14" height="14"/>
  <rect x="187" y="285" width="14" height="14"/>
  <rect x="257" y="397" width="14" height="14"/>
  <path d="M432,19.1s0,0,0,0c-27.1,0-49,22-48.9,49,0,27.1,22,49,49,49,27,0,48.9-21.9,48.9-49h0c0-27.1-22-49-49-49.1ZM467,68c0,19.3-15.7,34.9-35,34.9,0,0,0,0,0,0-19.3,0-35-15.7-34.9-35.1,0-19.3,15.7-35,35.1-34.9,19.3,0,34.9,15.7,34.9,34.9h0Z"/>
  <rect x="453" y="131" width="14" height="14"/>
  <path d="M432,47c-11.6,0-21,9.4-21,21s9.4,21,21,21,21-9.4,21-21-9.4-21-21-21Z"/>
  <rect x="243" y="355" width="14" height="14"/>
  <rect x="271" y="327" width="14" height="14"/>
  <rect x="271" y="383" width="14" height="14"/>
  <rect x="383" y="383" width="14" height="14"/>
  <rect x="173" y="355" width="14" height="28"/>
  <polygon points="327 467 327 453 285 453 285 439 271 439 271 453 229 453 229 439 215 439 215 453 187 453 187 467 201 467 201 481 215 481 215 467 271 467 271 481 383 481 383 467 327 467"/>
  <polygon points="159 467 159 453 145 453 145 467 131 467 131 481 187 481 187 467 159 467"/>
  <rect x="159" y="439" width="14" height="14"/>
  <polygon points="201 439 201 425 187 425 187 411 173 411 173 383 159 383 159 355 103 355 103 369 131 369 131 411 159 411 159 425 173 425 173 439 201 439"/>
  <rect x="173" y="75" width="14" height="14"/>
  <path d="M131,341v-14h14v-14h-14v-14h14v-14h-14v-28h-14v14h-14v-14h-14v28h28v14h-28v28h-14v14h14v14h14v-14h28ZM103,313h14v14h-14v-14Z"/>
  <rect x="61" y="285" width="28" height="14"/>
  <rect x="61" y="313" width="14" height="14"/>
  <polygon points="159 313 159 341 173 341 173 285 159 285 159 299 145 299 145 313 159 313"/>
  <rect x="103" y="243" width="14" height="14"/>
  <rect x="173" y="229" width="14" height="14"/>
  <rect x="215" y="299" width="14" height="14"/>
  <polygon points="33 299 33 341 19 341 19 355 33 355 33 369 47 369 47 313 61 313 61 299 33 299"/>
  <polygon points="229 257 243 257 243 229 229 229 229 243 187 243 187 257 215 257 215 285 229 285 229 257"/>
  <rect x="159" y="257" width="28" height="14"/>
  <rect x="19" y="285" width="14" height="14"/>
  <path d="M68,382.9s0,0,0,0c-27,0-48.9,21.9-49,49h0c0,27.2,22,49.1,49.1,49,27.1,0,49-22,49-49,0-27-22-48.9-49-49ZM68,467s0,0,0,0c-19.3,0-34.9-15.7-34.9-34.9h0c0-19.4,15.7-35.1,35-35,19.3,0,35,15.7,34.9,35,0,19.3-15.7,34.9-35,34.9Z"/>
  <path d="M68.1,117c27.1,0,49-22,49-49,0-27-21.9-48.9-49-49h0c-27.1,0-49,22-49,49,0,27.1,22,49,49,49ZM67.9,33h.1c19.3,0,35,15.7,34.9,35,0,19.3-15.7,34.9-35,34.9,0,0,0,0,0,0-19.3,0-35-15.7-34.9-35,0-19.3,15.7-34.9,34.9-34.9Z"/>
  <path d="M68,411c-11.6,0-21,9.4-21,21s9.4,21,21,21,21-9.4,21-21-9.4-21-21-21Z"/>
  <rect x="159" y="201" width="14" height="14"/>
  <path d="M68,89c11.6,0,21-9.4,21-21s-9.4-21-21-21-21,9.4-21,21,9.4,21,21,21Z"/>
  <rect x="131" y="425" width="14" height="28"/>
  <rect x="467" y="453" width="14" height="14"/>
  <polygon points="425 481 425 467 439 467 439 453 411 453 411 467 397 467 397 481 425 481"/>
  <rect x="439" y="467" width="14" height="14"/>
  <rect x="355" y="229" width="14" height="14"/>
  <rect x="411" y="327" width="14" height="14"/>
  <rect x="369" y="215" width="14" height="14"/>
  <rect x="383" y="299" width="14" height="28"/>
  <polygon points="215 103 215 89 187 89 187 117 201 117 201 103 215 103"/>
  <polygon points="285 103 271 103 271 131 257 131 257 145 285 145 285 103"/>
  <polygon points="229 103 215 103 215 117 201 117 201 131 229 131 229 103"/>
  <rect x="229" y="61" width="14" height="28"/>
  <polygon points="243 89 243 117 257 117 257 103 271 103 271 89 243 89"/>
  <rect x="229" y="131" width="14" height="14"/>
  <rect x="131" y="61" width="28" height="14"/>
  <rect x="103" y="187" width="28" height="14"/>
  <polygon points="33 215 47 215 47 229 33 229 33 243 19 243 19 257 33 257 33 271 75 271 75 257 47 257 47 243 75 243 75 201 47 201 47 187 33 187 33 215"/>
  <rect x="19" y="215" width="14" height="14"/>
  <rect x="131" y="33" width="14" height="14"/>
  <rect x="355" y="61" width="14" height="14"/>
  <rect x="425" y="131" width="14" height="14"/>
  <rect x="355" y="103" width="14" height="14"/>
  <rect x="355" y="19" width="14" height="14"/>
  <rect x="145" y="19" width="14" height="14"/>
</svg>