<?xml version="1.0" encoding="UTF-8"?>
<svg id="Layer_1" xmlns="http://www.w3.org/2000/svg" version="1.1" viewBox="0 0 500 500">
  <!-- Generator: Adobe Illustrator 29.5.1, SVG Export Plug-In . SVG Version: 2.1.0 Build 141)  -->
  <path d="M257,159v14h-42v-14h42ZM341,103h-14v28h14v-28ZM299,61h14v-14h14v-28h-14v14h-14v28ZM299,33v-14h-28v14h28ZM355,89v42h-14v14h42v-14h-14v-56h-28v-14h-14v28h28ZM285,75h-14v14h14v14h14v14h14v-14h14v-14h-28v-28h-14v14ZM397,159v-14h-14v14h14ZM243,103v14h14v-28h-28v14h14ZM271,103v14h14v-14h-14ZM285,145h14v-28h-14v28ZM68,411c-11.6,0-21,9.4-21,21s9.4,21,21,21,21-9.4,21-21-9.4-21-21-21ZM117,431.9c0,27.1-21.9,49-49,49-27.1,0-49-21.9-49-48.9h0c0-27.1,21.9-49,48.9-49.1h0c27,0,49,21.9,49,49ZM103,432.1c0-19.3-15.6-35-35-35-19.3,0-35,15.6-35.1,35h0c0,19.4,15.7,35,35,35.1h0c19.3,0,35-15.6,35-35ZM47,355v14h14v-14h-14ZM159,453v-14h14v-14h-28v14h-14v14h14v14h42v-14h-28ZM145,397h-14v28h14v-28ZM467,481h14v-14h-14v14ZM47,271v-14h-28v14h28ZM369,19h-14v42h14V19ZM68,89c11.6,0,21-9.4,21-21s-9.4-21-21-21-21,9.4-21,21,9.4,21,21,21ZM61,145v-14h-14v14h14ZM19.1,68.1c0-27.1,21.9-49,48.9-49.1h.1c27,0,48.9,21.9,48.9,49,0,27.1-21.9,49-48.9,49-27.1,0-49-21.9-49.1-48.9ZM32.9,68c0,19.3,15.6,35,35,35h0c19.3,0,35-15.6,35-35,0-19.3-15.6-35-35-35.1h0c-19.3,0-34.9,15.7-35,35ZM229,467v-14h-14v14h14ZM19,229v14h28v-14h-28ZM33,285v14h14v-14h-14ZM369,173v14h28v28h28v-14h14v-28h-14v-14h-28v14h-28ZM131,103v14h14v-14h-14ZM131,33v14h14v-14h-14ZM355,481h14v-14h-14v14ZM313,467h28v-42h-14v14h-14v28ZM243,425v14h14v14h-14v14h42v14h14v-28h-28v-14h14v-14h-28v-14h-28v14h14ZM467,439v-14h-14v14h14ZM299,439h14v-28h-14v28ZM285,173h-14v14h14v-14ZM425,439v14h-42v-14h-14v28h28v14h28v-14h14v-14h14v-14h-28ZM313,411h14v-14h-14v14ZM103,299v14h14v-14h-14ZM383,397h14v-14h-14v14ZM89,285v-14h-14v-14h-14v28h14v14h-28v14h14v14h14v-14h14v-14h14v-14h-14ZM271,187h-14v14h14v-14ZM159,285v-14h-14v14h14ZM47,313h-28v42h14v-14h28v-14h-14v-14ZM453,173h28v14h-14v14h14v70h-14v28h14v98h-28v28h-28v14h-14v-14h-14v14h-14v-14h-14v14h-14v-56h-14v14h-14v-14h-14v-14h28v-14h-28v14h-28v14h28v14h-14v14h-28v-28h-14v-14h-14v14h14v14h-28v14h-28v14h14v28h-14v-14h-14v-42h-14v-14h14v-14h-28v-14h-14v14h14v14h-28v-14h-56v-14h42v-14h-28v-14h28v-14h14v-28h14v56h14v-28h14v-42h-14v-14h14v-14h56v-28h-14v-14h-14v14h14v14h-42v-14h-14v14h-28v14h28v14h-14v14h-14v14h-28v-14h14v-14h-14v-14h14v-14h-14v-14h42v-14h42v-28h14v14h28v14h28v14h-14v14h14v14h-14v14h-14v28h14v14h14v14h14v14h-56v14h70v-14h28v14h28v-28h14v-28h14v14h28v14h14v14h-14v14h-14v-28h-14v28h-14v14h84v14h-14v14h14v-14h14v14h14v-14h-14v-14h14v-28h-14v-28h-28v14h-14v-42h-14v-14h14v-14h14v14h14v14h-14v14h28v-28h-14v-42h14v28h14v-28h-14v-42ZM201,341v-28h28v-14h-28v-14h14v-14h-14v-14h-14v14h14v14h-14v14h14v14h-14v14h-14v14h28ZM215,383h-14v14h14v-14ZM215,355h-14v14h14v-14ZM411,369h-42v42h42v-42ZM103,271v-14h-14v14h14ZM201,75v-14h-14v14h-14v14h14v42h-14v14h84v14h14v-28h-42v-28h-14v14h-14v-14h14v-14h14v-14h-28ZM467,131h-14v14h-14v28h14v-14h28v-14h-14v-14ZM432,47c-11.6,0-21,9.4-21,21s9.4,21,21,21,21-9.4,21-21-9.4-21-21-21ZM103,187v14h28v-14h-28ZM481,68h0c0,27.1-21.9,49-48.9,49-27.1,0-49-21.9-49.1-48.9,0-27.1,21.9-49,48.9-49.1h0c27,0,49,21.9,49,49ZM467,67.9c0-19.3-15.7-34.9-34.9-35-19.3,0-35,15.6-35.1,35,0,19.3,15.6,35,34.9,35h0c19.3,0,35-15.6,35-35h0ZM159,187h14v-28h-14v28ZM313,145v14h14v-14h-14ZM327,159v14h14v14h14v-28h-28ZM425,131h-14v14h14v-14ZM89,173h42v-28h-14v14h-14v-14h14v-14h-42v28h14v14ZM145,131h-14v14h14v-14ZM75,187h14v-14h-14v14ZM47,187h-14v-14h14v14h14v-14h14v-14H19v42h14v14h14v-28ZM159,117h-14v14h14v-14ZM201,33v14h28v28h14v-14h28v-28h-14v14h-14v-14h14v-14h-112v14h56ZM159,117h14v-28h-14v-42h-14v28h-14v14h14v14h14v14ZM89,229v-28h-14v-14h-14v28h-14v14h14v14h14v-14h14ZM89,243h-14v14h14v-14ZM397,285v-14h-28v14h28ZM285,229h28v14h-28v-14h-14v28h14v14h-42v14h42v14h-14v14h28v-56h28v-14h14v-28h-28v-14h14v-14h-14v-14h-14v14h-14v42ZM271,215h-14v14h14v-14ZM327,257v14h-14v56h14v-14h14v-14h-14v-14h28v-14h14v-14h14v-14h-42v14h-14ZM425,327v14h28v-14h-28ZM397,229h-14v14h14v-14ZM355,201h-14v14h14v-14ZM369,229v-14h-14v14h14Z"/>
</svg>